<?xml version="1.0" encoding="utf-8"?>
<!-- Generator: Adobe Illustrator 21.1.0, SVG Export Plug-In . SVG Version: 6.00 Build 0)  -->
<svg version="1.1" id="Layer_1" xmlns="http://www.w3.org/2000/svg" xmlns:xlink="http://www.w3.org/1999/xlink" x="0px" y="0px"
	 viewBox="0 0 690 636.4" style="enable-background:new 0 0 690 636.4;" xml:space="preserve">
<style type="text/css">
	.st0{fill:#CCAF66;}
</style>
<g>
	<g>
		<path class="st0" d="M574.1,591.4L574.1,591.4c1.2,0,2.3,0.3,3.3,0.9c2.8,1.6,3.7,4.9,2.3,8.1c-1,2.3-3.4,4.7-6.4,4.7
			c-1.8,0-3.4-0.9-4.6-2.4c-1.6-2.1-1.9-4.8-0.7-7.2C569.2,593,571.6,591.4,574.1,591.4z M573.3,600.4c0.6,0,1.6-0.8,2.1-1.9
			c0.5-1,0.3-1.7-0.3-2.1c-1.1-0.6-2.3-0.1-2.9,1.1c-0.2,0.5-0.5,1.4,0.2,2.3C572.7,600.2,573,600.4,573.3,600.4z"/>
	</g>
	<g>
		<path class="st0" d="M586.6,447.9c1.3,0,2.5,0.6,3.4,1.6c0.8,0.9,1.2,2,1.1,3.1c-0.1,2.8-3.5,4.4-6,2.8c-0.3-0.2-0.6-0.4-0.8-0.6
			c-1.4-1.3-1.9-3-1.2-4.6C583.6,448.8,585,447.9,586.6,447.9z"/>
	</g>
	<g>
		<path class="st0" d="M430.9,572.2L430.9,572.2c3,0,5.4,2.3,5.8,5.7c0.4,3.1-1,6.8-4.5,7.7c-3.6,1-7.1-1.4-7.9-5.2
			c-0.7-3.2,0.8-6.3,3.7-7.6C429,572.4,429.9,572.2,430.9,572.2z M430.4,581.1c0.1,0,0.3,0,0.5-0.1c1-0.3,1.2-1.7,1.1-2.6
			c0-0.2-0.2-1.6-1.2-1.6l0,0c-0.3,0-0.6,0.1-1,0.3c-1.3,0.6-1.2,1.8-1,2.3C429,580.3,429.6,581.1,430.4,581.1z"/>
	</g>
	<g>
		<path class="st0" d="M464.2,452.4c2.2,0,4.1,1.1,5.4,3c1.4,2.1,1.6,4.8,0.4,7c-1.9,3.6-6.7,4.9-10.1,2.7c-2.7-1.8-3.7-4.5-2.9-7.3
			C457.9,454.8,461,452.4,464.2,452.4z M463.7,461.6c0.8,0,1.7-0.5,2.1-1.3c0.3-0.5,0.5-1.3-0.2-2.2c-0.6-0.8-1.1-0.9-1.5-0.9
			c-1.1,0-2.4,1-2.7,2.1c-0.1,0.3-0.3,1.1,1,2C462.9,461.5,463.3,461.6,463.7,461.6z"/>
	</g>
	<g>
		<path class="st0" d="M98,417.9c2.6-3.8,8.7-2.4,9.3,2.3C108.3,428.7,94.1,423.7,98,417.9z"/>
	</g>
	<g>
		<path class="st0" d="M36.3,509.2L36.3,509.2c2.2,0,4.2,1.2,5.4,3.2c1.3,2.1,1.4,4.8,0.3,7c-1.1,2.1-2.9,3.3-5.1,3.3
			c-3,0-6-2.4-6.9-5.5c-0.8-2.8,0.4-5.4,3.1-7C34,509.5,35.1,509.2,36.3,509.2z M36.8,517.9c0.2,0,0.5,0,0.9-0.8
			c0.5-0.9,0.2-1.8-0.1-2.4c-0.5-0.9-1.3-1.2-2.2-0.6c-1.1,0.6-1.1,1.2-0.9,1.7C34.8,517,36,517.9,36.8,517.9z"/>
	</g>
	<g>
		<path class="st0" d="M101.8,598.2L101.8,598.2c2.5,0,4.9,1.2,6.3,3.1c2.4,3.3,1.7,5.8,1.1,6.9c-1.1,2.2-3.7,3.5-6.8,3.5
			c-2.9,0-5.3-1.2-6.5-3.2c-0.8-1.4-1.5-3.8,0.4-7.1C97.2,599.4,99.3,598.2,101.8,598.2z M102.3,607.1c1.3,0,2.4-0.5,2.7-1
			c0.2-0.4-0.1-1.2-0.7-2.1c-0.5-0.7-1.5-1.2-2.5-1.2l0,0c-1.1,0-1.4,0.6-1.5,0.8c-0.6,1.1-0.8,2-0.5,2.5
			C100.1,606.8,101.2,607.1,102.3,607.1z"/>
	</g>
	<g>
		<path class="st0" d="M314.2,586.3c-1.3,6.4,9.9,4.7,7.8-0.8C320.7,582,314.9,582.8,314.2,586.3z"/>
	</g>
	<g>
		<path class="st0" d="M220,69.8c2.1,0,4,1.1,5.1,3c1.2,2.1,1.2,4.5,0,6.5c-2,3.5-7.1,4.7-10.4,2.2c-1.8-1.4-2.6-3.2-2.4-5.3
			c0.3-2.4,2.1-4.6,4.6-5.7C218,70,219,69.8,220,69.8z M218.8,78.2c0.8,0,1.7-0.5,2.2-1.3c0.3-0.6,0.3-1.2,0-1.9
			c-0.4-0.7-1.2-0.7-2.1-0.3c-1.1,0.5-1.8,1.4-1.9,2c0,0.1-0.1,0.5,0.6,1C218,78.1,218.4,78.2,218.8,78.2z"/>
	</g>
	<g>
		<path class="st0" d="M565.2,12.9c2.1,0,4,1.1,5.1,3c1.2,2.1,1.2,4.5,0,6.5c-2,3.5-7.1,4.7-10.4,2.2c-1.8-1.4-2.6-3.2-2.4-5.3
			c0.3-2.4,2.1-4.6,4.6-5.7C563.2,13.1,564.2,12.9,565.2,12.9z M564.1,21.3c0.8,0,1.7-0.5,2.2-1.3c0.3-0.6,0.3-1.2,0-1.9
			c-0.4-0.7-1.2-0.7-2.1-0.3c-1.1,0.5-1.8,1.4-1.9,2c0,0.1-0.1,0.5,0.6,1C563.2,21.1,563.6,21.3,564.1,21.3z"/>
	</g>
	<g>
		<path class="st0" d="M69.9,56.8c1,0,2,0.4,2.9,1.2c1.5,1.3,2,3.1,1.4,4.8c-0.5,1.5-1.9,2.4-3.4,2.4c-0.8,0-2-0.3-3.2-1.5
			c-0.2-0.3-0.5-0.5-0.6-0.8c-0.8-1.3-1-2.8-0.3-4.1c0.6-1.2,1.8-1.9,3.1-2H69.9z"/>
	</g>
	<g>
		<path class="st0" d="M47.9,220c2.5,0,4.7,1.1,5.9,2.9c1.1,1.7,1.2,3.7,0.2,5.9c-1.1,2.4-3.3,3.9-6,3.9c-2.2,0-4.4-1-5.7-2.7
			c-1.2-1.5-1.5-3.4-1-5.3C42,221.8,44.6,220,47.9,220z M47.9,228c0.8,0,1.4-0.4,1.8-1.1c0.2-0.4,0.4-1,0.1-1.4
			c-0.3-0.4-1-0.8-2-0.8c-0.2,0-1.8,0-2.1,1.2c-0.1,0.5-0.1,0.9,0.2,1.2C46.3,227.6,47.1,228,47.9,228z"/>
	</g>
	<g>
		<path class="st0" d="M205.5,232.7c1.3,0,2.7,0.4,3.8,1.2c2.5,1.7,3.6,4.5,2.7,7.4c-1,3.1-3.9,5.5-6.9,5.5c-2.1,0-4.1-1.1-5.4-3.2
			c-1.4-2.2-1.6-4.8-0.4-7.1C200.5,234.2,202.9,232.7,205.5,232.7z M205,242.1c1,0,2.1-1,2.5-2.2c0.3-0.9,0-1.6-0.8-2.1
			c-1.2-0.8-2.7-0.3-3.3,0.9c-0.3,0.5-0.5,1.3,0.1,2.3C204,241.7,204.5,242.1,205,242.1z"/>
	</g>
	<g>
		<path class="st0" d="M40.5,342.6c-6.4,1.3-4.7-9.9,0.8-7.8C44.9,336.1,44,341.9,40.5,342.6z"/>
	</g>
	<g>
		<path class="st0" d="M668.8,517.1C668.8,517.1,668.8,517.1,668.8,517.1c3,0,5.6,1.5,6.7,4c1,2.1,0.9,4.1-0.1,5.8
			c-1.2,1.9-3.7,3.1-6.6,3.1c-2.4,0-4.6-0.9-5.9-2.4c-0.8-0.9-1.6-2.6-1.2-5C662.4,519.4,665.3,517.1,668.8,517.1z M668.9,525.3
			c1.3,0,2.3-0.5,2.6-1c0.2-0.3,0.1-0.7-0.2-1.2c-0.5-1-1.6-1.3-2.5-1.3c0,0,0,0,0,0c-0.2,0-2.1,0.1-2.4,1.6
			c-0.1,0.8,0.1,1.1,0.2,1.2C667,525,667.9,525.3,668.9,525.3z"/>
	</g>
	<g>
		<path class="st0" d="M568.5,381.9c-6.4,1.3-4.7-9.9,0.8-7.8C572.8,375.4,572,381.2,568.5,381.9z"/>
	</g>
	<g>
		<path class="st0" d="M264.1,451C264.1,451,264.1,451,264.1,451c0.4,3-0.8,5.7-3.1,7.2c-1.9,1.2-3.9,1.5-5.7,0.6
			c-2.1-1-3.6-3.3-4-6.1c-0.3-2.4,0.3-4.6,1.6-6.1c0.8-0.9,2.3-2,4.8-1.9C261,444.9,263.7,447.4,264.1,451z M256,452.1
			c0.2,1.3,0.8,2.2,1.3,2.5c0.3,0.1,0.7,0,1.2-0.3c0.9-0.6,1.1-1.8,1-2.7c0,0,0,0,0,0c0-0.2-0.3-2.1-1.9-2.2c-0.8,0-1,0.2-1.1,0.3
			C256,450.2,255.9,451.1,256,452.1z"/>
	</g>
	<g>
		<path class="st0" d="M384.8,333.5c-2.1-6.2,9.2-6,7.9-0.2C391.8,337,386,336.9,384.8,333.5z"/>
	</g>
	<g>
		<path class="st0" d="M404.5,212.7c1.3,0,2.7,0.4,3.8,1.2c2.5,1.7,3.6,4.5,2.7,7.4c-1,3.1-3.9,5.5-6.9,5.5c-2.1,0-4.1-1.1-5.4-3.2
			c-1.4-2.2-1.6-4.8-0.4-7.1C399.5,214.2,401.9,212.7,404.5,212.7z M404,222.1c1,0,2.1-1,2.5-2.2c0.3-0.9,0-1.6-0.8-2.1
			c-1.2-0.8-2.7-0.3-3.3,0.9c-0.3,0.5-0.5,1.3,0.1,2.3C403,221.7,403.5,222.1,404,222.1z"/>
	</g>
	<g>
		<path class="st0" d="M416.1,83.8c-2.1-6.2,9.2-6,7.9-0.2C423.1,87.3,417.3,87.2,416.1,83.8z"/>
	</g>
	<g>
		<path class="st0" d="M532.7,203.4c3.8,2.6,2.4,8.7-2.3,9.3C521.9,213.7,526.8,199.4,532.7,203.4z"/>
	</g>
	<g>
		<path class="st0" d="M608,145.8c-1.3-6.4,9.9-4.7,7.8,0.8C614.5,150.2,608.7,149.3,608,145.8z"/>
	</g>
</g>
</svg>
