<?xml version="1.0" encoding="utf-8"?>
<!-- Generator: Adobe Illustrator 22.1.0, SVG Export Plug-In . SVG Version: 6.00 Build 0)  -->
<svg version="1.1" id="Layer_1" xmlns="http://www.w3.org/2000/svg" xmlns:xlink="http://www.w3.org/1999/xlink" x="0px" y="0px"
	 viewBox="0 0 600 230" style="enable-background:new 0 0 600 230;" xml:space="preserve">
<style type="text/css">
	.st0{fill:#B2745E;}
	.st1{fill-rule:evenodd;clip-rule:evenodd;fill:#B2745E;}
</style>
<g>
	<g>
		<path class="st0" d="M1669.6,181h22.6v-8.2h-22.6V181z M1661.5,168.7v16.4c0,2.2,1.8,4.1,4.1,4.1h30.7c2.3,0,4.1-1.8,4.1-4.1
			v-16.4c0-2.2-1.8-4.1-4.1-4.1h-30.7C1663.3,164.6,1661.5,166.4,1661.5,168.7L1661.5,168.7z M1745.8,192.8V71.7
			c0-0.8-0.6-1.4-1.4-1.4h-15.3v123.9h15.3C1745.2,194.2,1745.8,193.6,1745.8,192.8z M1713.4,194.2h7.5V70.3h-7.5V194.2z
			 M1579.1,194.2h7.5V70.3h-7.5V194.2z M1554.2,192.8c0,0.8,0.6,1.4,1.4,1.4h15.3V70.3h-15.3c-0.8,0-1.4,0.6-1.4,1.4V192.8z
			 M1611.5,42v20.1h7V48.6c0-3.6,3-6.6,6.6-6.6h49.8c3.6,0,6.6,2.9,6.6,6.6v13.5h7V42c0-3.4-2.8-6.2-6.3-6.2h-64.5
			C1614.3,35.8,1611.5,38.6,1611.5,42z M1626.7,62.2h46.7v-12h-46.7V62.2z M1607.4,70.3h-12.7v123.9h110.5V70.3h-12.7h-15.2h-54.8
			H1607.4z M1744.4,62.2c5.3,0,9.6,4.3,9.6,9.6v121.1c0,5.3-4.3,9.6-9.6,9.6H1725h-15.7h-118.7H1575h-19.4c-5.3,0-9.6-4.3-9.6-9.6
			V71.7c0-5.3,4.3-9.6,9.6-9.6h19.4h15.7h12.7V42c0-7.9,6.5-14.4,14.4-14.4h64.5c8,0,14.4,6.4,14.4,14.4v20.1h12.7h15.7H1744.4z
			 M1639.7,119.6c1-6.9,5.9-8.1,7.9-8.3c3.8-0.3,7.5,1.6,8.4,4.3c0.5,1.7,2.1,2.8,3.9,2.8c1.8,0,3.4-1.2,3.9-2.8
			c0.9-2.8,4.6-4.7,8.4-4.3c2.1,0.2,7,1.3,7.9,8.3c1.5,11.2-12.7,21.5-20.2,25.6c-0.5-0.3-1.2-0.7-1.9-1.1c1.1-2.2,1.9-4.4,2.1-6.6
			c0,0,0,0,0-0.1c0-0.2,0-0.4,0.1-0.6c0,0,0-0.1,0-0.1c0-0.2,0-0.4,0-0.6c0-0.1,0-0.1,0-0.2c0-0.2,0-0.4,0-0.5c0-0.1,0-0.1,0-0.2
			c0-0.2,0-0.4,0-0.5c0-0.1,0-0.1,0-0.2c0-0.2,0-0.4,0-0.6c0-0.1,0-0.1,0-0.2c0-0.2-0.1-0.5-0.1-0.7c0-0.3-0.1-0.5-0.1-0.8
			c0,0,0-0.1,0-0.1c0-0.2-0.1-0.4-0.1-0.7c-1.7-7.4-7.3-10.6-12.3-11c-2.9-0.2-5.6,0.3-8,1.5
			C1639.5,121.2,1639.6,120.4,1639.7,119.6 M1637.5,152.6c-5.7-3.2-15.7-10.6-14.6-18.5c0.6-4.5,3.5-5.4,5.2-5.5c0.2,0,0.4,0,0.6,0
			c2.3,0,4.4,1.1,4.9,2.7c0.5,1.7,2.1,2.8,3.9,2.8c1.7,0,3.2-1.1,3.8-2.7c0-0.1,0.1-0.2,0.1-0.2c0.6-1.7,3.1-2.8,5.6-2.6
			c0.1,0,0.2,0,0.4,0c0,0,0,0,0,0c0.1,0,0.2,0,0.2,0c0.1,0,0.2,0,0.2,0.1c0,0,0,0,0,0c1.5,0.4,3.3,1.5,4,4.5c0,0,0,0.1,0,0.1
			c0,0.2,0.1,0.5,0.1,0.7c0,0,0,0.1,0,0.1c0,0,0,0,0,0c0,0.2,0,0.4,0.1,0.6c0,0.1,0,0.1,0,0.2c0,0.2,0,0.3,0,0.5c0,0,0,0.1,0,0.1
			c0,0.2,0,0.4,0,0.7c0,0,0,0,0,0.1c0,0.2-0.1,0.4-0.1,0.6c0,0,0,0.1,0,0.1c0,0.2-0.1,0.4-0.1,0.6c0,0,0,0,0,0
			c-0.1,0.5-0.3,0.9-0.5,1.4c0,0,0,0,0,0c-0.1,0.2-0.2,0.5-0.3,0.7c0,0,0,0,0,0c-0.3,0.7-0.7,1.3-1.1,2c0,0-0.1,0.1-0.1,0.1
			c-0.1,0.1-0.2,0.3-0.3,0.4c-0.1,0.1-0.1,0.2-0.2,0.3C1646.1,147.1,1641,150.7,1637.5,152.6 M1631.6,118.5
			c-0.1,0.7-0.2,1.5-0.2,2.2c-1.3-0.2-2.6-0.3-4-0.2c-5.3,0.4-11.4,4-12.6,12.5c-2.3,16.4,19.9,27.4,20.9,27.9
			c0.6,0.3,1.2,0.4,1.8,0.4c0.6,0,1.2-0.1,1.8-0.4c0.5-0.3,8-4,13.9-10.1c2.8,1.7,4.8,2.7,4.9,2.8c0.6,0.3,1.2,0.4,1.8,0.4
			c0.6,0,1.2-0.1,1.8-0.4c0.3-0.1,7.2-3.5,13.9-9.3c9.4-8.1,13.8-17,12.6-25.7c-1.4-10.4-8.8-14.7-15.3-15.2c-5-0.4-9.7,1.2-13,4.1
			c-3.3-2.9-8-4.5-13-4.1C1640.4,103.8,1633,108.1,1631.6,118.5 M1623.8,82.3l5.9,5.8l-16,15.9l-5.9-5.8L1623.8,82.3z M1599.2,101.1
			l11.6,11.6c0.8,0.8,1.8,1.2,2.9,1.2c1,0,2.1-0.4,2.9-1.2l21.7-21.7c0.8-0.8,1.2-1.8,1.2-2.9c0-1.1-0.4-2.1-1.2-2.9l-11.6-11.6
			c-1.6-1.6-4.2-1.6-5.8,0l-21.7,21.7c-0.8,0.8-1.2,1.8-1.2,2.9C1598,99.3,1598.4,100.3,1599.2,101.1L1599.2,101.1z"/>
	</g>
</g>
<path class="st1" d="M2241,132.2c0,0.1,0,0.3,0,0.4C2241,132.5,2241,132.4,2241,132.2 M2262,130.1c0,0.1,0,0.3,0,0.4
	C2262,130.4,2262,130.3,2262,130.1 M2356.4,117.1c3.9,0,7.8,0,11.8,0c0,1.5,0,3.1,0,4.6c-3.6,0-7.3,0-10.9,0c-0.6,0-0.8,0.3-0.8-0.4
	c-0.1,0-0.3,0-0.4,0C2356.1,119.9,2356.3,118.5,2356.4,117.1 M2592.3,107.4c-1.2,3.2-4.6,8.8-4.6,12.2c1.3,0,8.8,0.3,8.8-0.4
	c0.1,0,0.3,0,0.4,0C2596.2,115.2,2594.8,110.5,2592.3,107.4 M2245.2,107c-1.1,3.1-4.6,9.4-4.6,12.6c1.3,0,8.8,0.3,8.8-0.4
	c0.1,0,0.3,0,0.4,0C2249,115,2247.4,110.5,2245.2,107 M2505,98.2c0,0.1,0,0.3,0,0.4c-9.3,4.3-7.9,34.6,4.2,33.4
	c10.9-1.1,9-27.8,2-32.7C2509.5,98.1,2507.2,98.2,2505,98.2 M2423.6,98.2c0,0.1,0,0.3,0,0.4c-9.3,4.3-8,34.6,4.2,33.4
	c10.9-1.1,9-27.8,2-32.7C2428.1,98.1,2425.8,98.2,2423.6,98.2 M2223.3,96.9L2223.3,96.9 M2528.9,96.1c3.3,0,12.5-0.7,14.8,0.5
	c1,0.5,7.4,18.9,7.4,20.9c0.1,0,0.3,0,0.4,0c0-0.1,0-0.3,0-0.4c0.1,0,0.3,0,0.4,0c0.5-3,5-18.8,6.6-20.2c1.8-1.5,10.1-0.8,13.1-0.8
	c0.6,0,0.8-0.2,0.8,0.4c0.1,0,0.3,0,0.4,0c-0.1,0.7-0.3,1.4-0.4,2.1c-0.9,0.2-3.8,0.3-3.8,1.3c-1.1,2.6-0.7,28.2,0.5,30.4
	c0.6,1,2.9,1.2,4.1,1.2c0,0.7,0.3,2.1-0.4,2.1c0,0.1,0,0.3,0,0.4c-5.2,0-10.3,0-15.5,0c-0.6,0-1.3,0.3-1.3-0.4c-0.1,0-0.3,0-0.4,0
	c0-0.7,0-1.4,0-2.1c1.4-0.1,2.8-0.3,4.2-0.4c0.8-9.1,0.4-19.1,0.4-28.6c-0.1,0-0.3,0-0.4,0c0,0.1,0,0.3,0,0.4
	c-0.8,2.1-1.5,4.2-2.3,6.2c-1.9,5.5-3.5,11.2-5.2,16.9c-0.7,2.5-1.4,5-2.1,7.6c-1.3,0-1.9-0.2-2.5-1.3c-0.9-2.5-1.8-5-2.7-7.5
	c-1.7-5-3.4-10.1-5-15.1c-0.8-2.3-1.5-4.5-2.3-6.8c-0.1,0-0.3,0-0.4,0c0,5.7,0,11.5,0,17.2c0,2.6-0.3,5.5,0.3,7.9
	c0.4,1.4,1.2,2.4,2.4,3.2c0.5,0.4,2.4,1.2,1.9,2.2c-0.8,1.6-10.2,1-12.6,1c-0.6,0-0.4,0.1-0.4-0.4c-0.1,0-0.3,0-0.4,0
	c0-0.4,0-0.8,0-1.3c1.5-1,3.5-1.8,4.3-3.5c1.1-2.5,0.7-6,0.7-9.1c0-6.3,0-12.6,0-18.9c-0.1,0-0.3,0-0.4,0c0,0.6,0.3,1.3-0.4,1.3
	c0.1-1,0.3-2,0.4-2.9c-0.8-0.1-4.2-0.2-4.2-0.8c-0.1,0-0.3,0-0.4,0C2528.7,97.7,2528.8,96.9,2528.9,96.1 M2448.8,96.1
	c3.1,0,9.8-0.7,12.1,0.5c0.9,0.5,17.7,22.6,17.7,22.6c0.1,0,0.3,0,0.4,0c0-0.6-0.1-0.4,0.4-0.4c0-4.8,0.7-12.5-0.3-16.7
	c-0.8-2.9-5.1-3.6-5.1-5.6c0.1,0,0.3,0,0.4,0c0-0.1,0-0.3,0-0.4c4.2,0,8.4,0,12.6,0c0.6,0,0.4-0.1,0.4,0.4c0.1,0,0.3,0,0.4,0
	c-0.9,3-3.9,2.8-4.7,6.4c-0.9,3.8-0.3,8.9-0.3,13c0,6.2-0.4,12-0.4,18.1c-1.6-0.1-2.9-0.2-4-1.1c-2-1.6-20.3-25.9-20.3-26.7
	c-0.3,0-0.6,0-0.8,0c0,5.2,0,10.4,0,15.6c0,2.2-0.2,4.8,0.6,6.6c0.8,1.8,2.2,2.4,3.9,3.3c0.5,0.3,2.1,2.2,1,2.2c0,0.1,0,0.3,0,0.4
	c-4.2-0.7-8.9-0.4-13.4-0.4c-0.6,0-0.4,0.1-0.4-0.4c-0.1,0-0.3,0-0.4,0c0-0.6,0-1.1,0-1.7c1.7-0.6,3.5-1.4,4.3-3.1
	c1.7-3.4,1-11.7,1.2-16.2c0.1-3.1,1-6.9,0-10c-0.8-2.5-5.5-4.2-5.5-4.7c-0.3-0.4-0.8-0.8,0-0.8C2448.5,96.6,2448.6,96.4,2448.8,96.1
	 M2207,96.1c5.7,0,11.5,0,17.2,0c-0.1,0.7,0.1,2.5-0.8,2.5c-1.3,0.1-2.5,0.3-3.8,0.4c0,10.7,0,21.3,0,31.9c0.8,0,4.2-0.4,4.2,0.4
	c0.1,0,0.3,0,0.4,0c0,0.8,0,1.7,0,2.5c-5.7,0-11.5,0-17.2,0c0-0.7-0.3-2.5,0.4-2.5c0-0.1,0-0.3,0-0.4c0.8-0.1,2.7,0,3.2-0.8
	c1.3-2.2,0.6-6.9,0.6-9.7c0-7.1,0-14.3,0-21.4c-1.4,0-2.8,0-4.2,0C2207,98,2207,97.1,2207,96.1 M2169.6,96.1c6.3,0,12.6,0,18.9,0
	c0,0.7,0.3,2.5-0.4,2.5c0,0.1,0,0.3,0,0.4c-1.7,0-3.4,0-5,0c0,4.4-0.7,29.6,0.7,31.3c1,1.2,4,1.1,5.6,1.1c1.8-0.9,3.6-0.9,5.3-2.3
	c2.8-2.5,3.9-9.1,7.3-9.1c-0.1,4.5-0.4,8.7-0.4,13c0,0.6,0.1,0.4-0.4,0.4c0,0.1,0,0.3,0,0.4c-9.8,0-19.5-0.4-29-0.4
	c-0.7,0-2.9,0.3-2.9-0.4c-0.1,0-0.3,0-0.4,0c0-0.6-0.3-1.3,0.4-1.3c1.3-1.2,3.7-0.5,4.6-2.3c1.2-2.3,1.4-25.8,0.4-28.6
	c-0.9-2.5-5.1-1.6-5.1-4.4C2169.3,96.3,2169.5,96.2,2169.6,96.1 M2132.7,96.1c6.3,0,12.6,0,18.9,0c0,0.7,0.3,2.5-0.4,2.5
	c0,0.1,0,0.3,0,0.4c-1.7,0-3.4,0-5,0c0,9.8,0,19.7,0.1,29.4c0,0.8-0.2,2.5,0.8,2.5c1.4,0.5,3,0.4,4.6,0.4
	c9.7-0.2,8.8-11.3,13.4-11.3c-0.1,4.5-0.4,8.7-0.4,13c0,0.6,0.1,0.4-0.4,0.4c0,0.1,0,0.3,0,0.4c-7.4,0-14.8,0-22.2,0
	c-2.8,0-6.3,0.4-8.7-0.4c-0.4-0.1-2-1.3-1-1.3c0-0.3,0-0.6,0-0.8c0.9-0.3,4.6-0.3,4.6-1.3c1.8-4.2,0.8-15.2,0.8-20.6
	c0-2.7,0.5-6.3-0.3-8.7c-0.9-2.5-5.1-1.5-5.1-4.4C2132.4,96.3,2132.5,96.2,2132.7,96.1 M2110.4,96.1c5.7,0,11.5,0,17.2,0
	c-0.1,0.7,0.1,2.5-0.8,2.5c-1.3,0.1-2.5,0.3-3.8,0.4c0,10.7,0,21.3,0,31.9c0.8,0,4.2-0.4,4.2,0.4c0.1,0,0.3,0,0.4,0
	c0,0.8,0,1.7,0,2.5c-5.7,0-11.5,0-17.2,0c0-0.7-0.3-2.5,0.4-2.5c0-0.1,0-0.3,0-0.4c0.9-0.1,2.7,0,3.2-0.8c1.1-1.9,0.6-5.2,0.6-7.6
	c0-7.8,0-15.7,0-23.5c-1.4,0-2.8,0-4.2,0C2110.4,98,2110.4,97.1,2110.4,96.1 M2055,96.1c5,0,10.1,0,15.1,0c0,0.7,0.3,2.1-0.4,2.1
	c0,0.1,0,0.3,0,0.4c-0.7,0-2.5-0.3-2.5,0.4c-0.1,0-0.3,0-0.4,0c0.4,5.6,3,11.2,4.8,16.3c0.6,2,1.3,4,1.9,6c0.1,0,0.3,0,0.4,0
	c0-0.1,0-0.3,0-0.4c1.5-2.8,4.2-10.7,4.4-13.9c0.1-1.9-0.7-4.2-1.4-5.7c-0.6-1.3-3.5-3.1-3.5-4c0-0.1,0.1-0.3,0.1-0.4
	c0.4-1.2,11.4-0.8,13.5-0.8c0.6,0,0.4-0.1,0.4,0.4c0.1,0,0.3,0,0.4,0c0,0.6,0,1.1,0,1.7c-1.1,0.2-2.4,0.4-2.8,1.5
	c-0.9,2.6,3.9,14.4,4.9,17.4c0.4,1.1,0.8,2.3,1.2,3.4c0.6,0,0.4-0.1,0.4,0.4c0.1,0,0.3,0,0.4,0c0-0.1,0-0.3,0-0.4
	c1.2-2.8,5.9-16.7,4.5-19.7c-0.6-1.4-1.6-2-2.8-2.6c-0.4-0.2-2.4-1.6-1.3-1.6c0-0.1,0-0.3,0-0.4c4.3,0,8.7,0,13,0
	c-0.7,2.7-3.6,3.5-4.8,6c-1.2,2.5-1.8,5.3-2.6,7.9c-1.5,5.1-3,10.3-4.6,15.4c-0.9,2.8-1.8,5.7-2.7,8.5c-1.1-0.1-2.4-0.2-3.1-1.1
	c-1.2-1.4-7-18.8-7-20.8c-0.3,0-0.6,0-0.8,0c-1.3,4.1-2.6,8.2-4,12.3c-0.9,2.7-1.3,6.6-3.1,8.9c-0.5,0.6-1.5,0.8-2.3,0.5
	c-1.6-0.6-2.1-3.8-2.5-5.2c-2.2-6.6-4.3-13.2-6.5-19.8c-0.9-2.6-1.4-5.8-3-8.1c-0.7-1-2.2-1.9-3.4-1.9
	C2055,97.7,2055,96.9,2055,96.1 M2593.6,95.6c1.3,0.1,2.5,0.1,3.4,0.9c1.5,1.3,2,3.9,2.7,5.7c2.4,5.9,4.8,11.9,7.3,17.8
	c1.1,3,2.2,6.8,4.2,9.4c0.8,1,2.6,2,3.9,2c-0.1,0.8,0,2.1-0.8,2.1c-4,1.2-11,0.4-15.5,0.4c-0.6,0-0.4,0.1-0.4-0.4
	c-0.1,0-0.3,0-0.4,0c0.1-0.7,0-2.1,0.8-2.1c0.6-0.3,1.2-0.6,1.8-0.9c1-1.8-0.1-6.6-2-7.5c-1.6-0.7-10.5-0.9-11.8,0.2
	c-0.8,0.6-1.2,1.8-1.4,2.7c-1.4,4.9,4.2,5.5,4.2,5.9c0.1,0,0.3,0,0.4,0c0,0.6,0.3,1.7-0.4,1.7c0,0.1,0,0.3,0,0.4c-4.3,0-8.7,0-13,0
	c-0.6,0-0.8,0.3-0.8-0.4c-0.1,0-0.3,0-0.4,0c0-0.6,0-1.1,0-1.7c1.4-0.7,2.7-1.3,3.8-2.5c1.8-2.1,2.5-4.6,3.5-7.1
	c2.3-5.9,4.6-11.8,6.9-17.8C2590.4,101.3,2591.4,98.2,2593.6,95.6 M2284.6,95.6c0.8,0.2,1.8,0.6,2.3,1.4c1,1.6,1.4,3.8,2,5.7
	c1,3.2,2,6.4,3,9.6c0.6,1.7,1.3,3.4,1.9,5.1c0.1,0,0.3,0,0.4,0c0.7-2.9,5.5-20.1,7.4-21c2.8-1.3,10-0.5,13.6-0.5
	c0,0.7,0.3,2.5-0.4,2.5c0,0.1,0,0.3,0,0.4c-1.4,0.1-3.1,0.1-3.7,1.5c-0.9,2.2-0.1,5.4-0.1,7.8c0,4.8,0,9.5,0,14.3c0,2.3-0.3,5,0.4,7
	c0.6,1.7,4.2,1,4.2,1.8c0.1,0,0.3,0,0.4,0c-0.1,0.8,0,2.1-0.8,2.1c-4.6,1.2-10.9,0.4-16,0.4c-0.6,0-0.4,0.1-0.4-0.4
	c-0.1,0-0.3,0-0.4,0c0-0.7,0-1.4,0-2.1c0.1,0,0.3,0,0.4,0c0-0.1,0-0.3,0-0.4c1.3,0,2.5,0,3.8,0c0.8-9.1,0.4-19.1,0.4-28.6
	c-0.3,0-0.6,0-0.8,0c-3,9.7-5.9,19.3-8.9,29c-0.3,0.7-0.7,1.5-1.6,1.5c-0.8,0-1.2-0.6-1.5-1.2c-3.4-6.9-4.9-14.8-7.5-22.1
	c-0.8-2.4-1.5-4.8-2.3-7.2c-0.3,0-0.6,0-0.8,0c0,6.4,0.1,13.3,0.4,19.3c0.1,2.1,0.2,4.2,0.3,6.2c0.7,2.8,4.8,3.2,4.8,6
	c-4.6,0-9.2,0-13.9,0c0-0.6,0-1.1,0-1.7c1.6-0.6,3.5-1.5,4.2-3.2c0.9-2.3,0.4-5.9,0.4-8.6c0-7.3-0.4-14.4-0.4-21.4
	c-1.7-0.2-3.1-0.8-4.6-0.8c0-0.4,0-0.8,0-1.3C2274.7,95.1,2280.4,96.9,2284.6,95.6 M2246.4,95.6c1.2,0.1,2.5,0.1,3.4,0.9
	c1.6,1.4,2,4,2.8,5.9c1.9,4.6,9.5,26.4,12.7,28.1c1.1,0.6,2.2,0.9,2.1,2.5c0,0.5,0,0.4-0.5,0.4c-4.5,1.2-10.6,0.4-15.5,0.4
	c-0.6,0-0.4,0.1-0.4-0.4c-0.1,0-0.3,0-0.4,0c0.1-0.7,0-2.1,0.8-2.1c0.6-0.3,1.2-0.6,1.8-0.9c1-1.8-0.1-6.6-2-7.5
	c-1.6-0.7-10.5-0.9-11.8,0.2c-0.9,0.7-1.2,2-1.5,3.1c-1.2,4.5,4.3,5.1,4.3,5.6c0.1,0,0.3,0,0.4,0c0,0.6,0.3,1.7-0.4,1.7
	c0,0.1,0,0.3,0,0.4c-4.3,0-8.7,0-13,0c-0.6,0-0.8,0.3-0.8-0.4c-0.1,0-0.3,0-0.4,0c0-0.6,0-1.1,0-1.7c1.3-0.7,2.5-1.2,3.6-2.3
	c1.9-1.9,2.6-4.6,3.6-6.9c2.3-5.9,4.6-11.8,6.9-17.7C2243.2,101.6,2244.1,98.3,2246.4,95.6 M2505.9,95.2c3.4,0,6.8,0.5,9.5,1.9
	c12.2,6.4,14.5,25.4,3,33.8c-2.5,1.8-5.2,3.3-8.4,3.7c-17.5,2-26-18.6-16.9-31.6C2496.3,98.3,2500.9,96.8,2505.9,95.2 M2424.4,95.2
	c3.8,0,7.6,0.6,10.5,2.5c11.1,7.2,13.6,25,2,33.2c-2.5,1.8-5.2,3.3-8.4,3.7c-17.3,1.9-26.5-19-16.8-31.8
	C2415.3,98.2,2419.3,96.9,2424.4,95.2 M2387.1,95.2c2.2,0,4.5,0,6.3,0.8c1.5,0.6,3.3,2.2,5,2.2c0.4-0.5,3.8-3.9,3.8-2.1
	c0.1,0,0.3,0,0.4,0c0,4.2,0,8.4,0,12.6c0,0.6,0.1,0.4-0.4,0.4c0,0.1,0,0.3,0,0.4c-0.4-0.1-0.8-0.2-1.2-0.3c-0.6-0.2-0.9-0.5-1.3-1
	c-0.7-1.3-1.3-2.7-2-4c-2.3-3.9-7-8.1-12-5.7c-1.8,0.8-3.3,2.3-3.5,4.3c-1,7.3,12.1,7.5,16.4,9.8c2.5,1.3,4.2,3.9,4.8,6.5
	c0.6,2.4,0.3,5.3-0.5,7.6c-1.8,5.3-8.1,9.1-14.1,7.8c-2.9-0.7-6.5-3.9-9-2c-0.5,0.4-3.3,2.1-3.3,0.9c-0.1,0-0.3,0-0.4,0
	c0-4.3,0-8.7,0-13c0-0.6-0.2-0.8,0.4-0.8c0-0.1,0-0.3,0-0.4c3.2,0.5,3.3,3.4,4.9,5.7c2.5,3.8,6.9,8,11.9,6.8
	c2.4-0.6,3.9-2.2,4.6-4.5c0.5-1.4,0-3-0.6-4.1c-0.9-1.5-2.5-2.4-4-3c-4.6-1.9-9.9-1.7-13.5-5.4c-6.3-6.3-2.1-19,7.3-19
	C2387.1,95.5,2387.1,95.4,2387.1,95.2 M2334.2,95.2c2.2,0,4.3,0.1,6.2,0.7c1.6,0.5,3.4,2.2,5.2,2.2c0.4-0.5,3.8-3.9,3.8-2.1
	c0.1,0,0.3,0,0.4,0c0,4.2,0,8.4,0,12.6c0,0.6,0.1,0.4-0.4,0.4c0,0.1,0,0.3,0,0.4c-0.4-0.1-0.8-0.2-1.2-0.3c-0.6-0.2-0.9-0.5-1.3-1
	c-0.7-1.3-1.3-2.7-2-4c-2.3-3.9-7-8.1-12-5.7c-1.8,0.8-3.3,2.3-3.5,4.3c-1,7.5,12.3,7.3,16.6,10c2,1.2,3.5,3.1,4.3,5.3
	c0.9,2.5,0.8,5.6,0,8.1c-2,6.4-8.9,9.7-15.6,8c-2.4-0.6-5.1-3.5-7.4-1.8c-0.5,0.4-3.5,2.3-3.5,1.1c-0.1,0-0.3,0-0.4,0
	c0-4.3,0-8.7,0-13c0-0.6-0.3-0.8,0.4-0.8c0-0.1,0-0.3,0-0.4c3,0.5,3.4,3.1,4.7,5.4c2.3,4.1,6.9,8.3,12.1,7.1c2.2-0.5,3.7-2,4.5-4.1
	c0.5-1.3,0.3-2.8-0.2-4c-0.7-1.6-2.3-2.6-3.8-3.2c-4.7-2.1-9.8-2-13.8-5.4c-7-6-2.1-19.2,7.1-19.2
	C2334.2,95.5,2334.2,95.4,2334.2,95.2"/>
<g>
	<g>
		<path class="st1" d="M1034.5,142.2c-18.6,13.7-45.6,21-68.8,21c-32.6,0-61.9-12-84-32.1c-1.7-1.6-0.2-3.7,1.9-2.5
			c23.9,13.9,53.5,22.3,84.1,22.3c20.6,0,43.3-4.3,64.1-13.1C1035,136.5,1037.6,139.9,1034.5,142.2z"/>
		<path class="st1" d="M1042.3,133.4c-2.4-3-15.7-1.4-21.7-0.7c-1.8,0.2-2.1-1.4-0.5-2.5c10.7-7.5,28.1-5.3,30.1-2.8
			c2,2.5-0.5,20-10.5,28.4c-1.5,1.3-3,0.6-2.3-1.1C1039.6,149,1044.7,136.4,1042.3,133.4z"/>
	</g>
	<g>
		<path class="st1" d="M1021,77.3V70c0-1.1,0.8-1.8,1.8-1.8l32.6,0c1,0,1.9,0.8,1.9,1.8v6.2c0,1-0.9,2.4-2.5,4.6l-16.9,24.1
			c6.3-0.1,12.9,0.8,18.6,4c1.3,0.7,1.6,1.8,1.7,2.8v7.8c0,1.1-1.2,2.3-2.4,1.7c-10-5.3-23.3-5.8-34.4,0.1c-1.1,0.6-2.3-0.6-2.3-1.7
			v-7.4c0-1.2,0-3.2,1.2-5l19.5-28l-17,0C1021.8,79.1,1021,78.4,1021,77.3z"/>
		<path class="st1" d="M902.2,122.7h-9.9c-0.9-0.1-1.7-0.8-1.8-1.7l0-50.9c0-1,0.9-1.8,1.9-1.8l9.2,0c1,0,1.7,0.8,1.8,1.7v6.6h0.2
			c2.4-6.4,6.9-9.4,13-9.4c6.2,0,10.1,3,12.9,9.4c2.4-6.4,7.9-9.4,13.7-9.4c4.2,0,8.7,1.7,11.5,5.6c3.1,4.3,2.5,10.5,2.5,15.9
			l0,32.1c0,1-0.9,1.8-1.9,1.8h-9.9c-1-0.1-1.8-0.9-1.8-1.8l0-27c0-2.1,0.2-7.5-0.3-9.5c-0.7-3.4-3-4.4-5.8-4.4
			c-2.4,0-4.9,1.6-5.9,4.2c-1,2.6-0.9,6.8-0.9,9.7v27c0,1-0.9,1.8-1.9,1.8h-9.9c-1-0.1-1.8-0.9-1.8-1.8l0-27c0-5.7,0.9-14-6.1-14
			c-7.1,0-6.8,8.1-6.8,14l0,27C904.1,121.9,903.2,122.7,902.2,122.7z"/>
		<path class="st1" d="M1085.3,67.2c14.7,0,22.7,12.6,22.7,28.7c0,15.5-8.8,27.8-22.7,27.8c-14.4,0-22.3-12.6-22.3-28.4
			C1063,79.6,1071,67.2,1085.3,67.2z M1085.4,77.6c-7.3,0-7.8,10-7.8,16.2c0,6.2-0.1,19.5,7.7,19.5c7.7,0,8-10.7,8-17.2
			c0-4.3-0.2-9.4-1.5-13.5C1090.8,79,1088.6,77.6,1085.4,77.6z"/>
		<path class="st1" d="M1127.1,122.7h-9.9c-1-0.1-1.8-0.9-1.8-1.8l0-50.9c0.1-0.9,0.9-1.7,1.9-1.7l9.2,0c0.9,0,1.6,0.6,1.8,1.4v7.8
			h0.2c2.8-7,6.7-10.3,13.5-10.3c4.4,0,8.8,1.6,11.6,6c2.6,4.1,2.6,10.9,2.6,15.8v32c-0.1,0.9-0.9,1.6-1.9,1.6h-9.9
			c-0.9-0.1-1.7-0.7-1.8-1.6V93.5c0-5.6,0.6-13.7-6.2-13.7c-2.4,0-4.6,1.6-5.7,4.1c-1.4,3.1-1.6,6.2-1.6,9.6v27.4
			C1129,121.9,1128.1,122.7,1127.1,122.7z"/>
		<path class="st1" d="M995,98.4c0,3.9,0.1,7.1-1.9,10.5c-1.6,2.8-4.1,4.5-6.9,4.5c-3.8,0-6-2.9-6-7.2c0-8.4,7.6-10,14.7-10V98.4z
			 M1005,122.6c-0.7,0.6-1.6,0.6-2.3,0.2c-3.3-2.7-3.9-4-5.7-6.6c-5.4,5.5-9.3,7.2-16.3,7.2c-8.3,0-14.8-5.2-14.8-15.4
			c0-8,4.4-13.5,10.6-16.2c5.4-2.4,12.9-2.8,18.6-3.4V87c0-2.4,0.2-5.1-1.2-7.2c-1.2-1.8-3.5-2.6-5.6-2.6c-3.8,0-7.1,1.9-8,6
			c-0.2,0.9-0.8,1.8-1.7,1.8l-9.6-1c-0.8-0.2-1.7-0.8-1.5-2.1c2.2-11.7,12.7-15.2,22.2-15.2c4.8,0,11.1,1.3,14.9,4.9
			c4.8,4.5,4.4,10.5,4.4,17.1v15.4c0,4.6,1.9,6.7,3.7,9.2c0.6,0.9,0.8,2,0,2.6C1010.6,117.7,1007,120.8,1005,122.6L1005,122.6z"/>
		<path class="st1" d="M865.1,98.4c0,3.9,0.1,7.1-1.9,10.5c-1.6,2.8-4.1,4.5-6.9,4.5c-3.8,0-6-2.9-6-7.2c0-8.4,7.6-10,14.7-10V98.4z
			 M875.1,122.6c-0.7,0.6-1.6,0.6-2.3,0.2c-3.3-2.7-3.9-4-5.7-6.6c-5.4,5.5-9.3,7.2-16.3,7.2c-8.3,0-14.8-5.2-14.8-15.4
			c0-8,4.4-13.5,10.6-16.2c5.4-2.4,12.9-2.8,18.6-3.4V87c0-2.4,0.2-5.1-1.2-7.2c-1.2-1.8-3.5-2.6-5.6-2.6c-3.8,0-7.1,1.9-8,6
			c-0.2,0.9-0.8,1.8-1.7,1.8l-9.6-1c-0.8-0.2-1.7-0.8-1.5-2.1c2.2-11.7,12.7-15.2,22.2-15.2c4.8,0,11.1,1.3,14.9,4.9
			c4.8,4.5,4.4,10.5,4.4,17.1v15.4c0,4.6,1.9,6.7,3.7,9.2c0.6,0.9,0.8,2,0,2.6C880.7,117.7,877.1,120.8,875.1,122.6L875.1,122.6z"/>
	</g>
</g>
<g>
	<path class="st1" d="M309.9,141.4l-3.8-4.8c-3.1,3.1-10,6.2-15.1,6.2c-8.6,0-16-6.2-16-14.3c0-10,9.6-15.5,12.4-16.5
		c-1.9-2.4-5.3-6.5-5.3-11.5c0.2-6.7,4.3-11.9,13.1-11.9c7.6,0,13.4,5,13.4,12.4c0,8.4-6.5,11.2-8.4,12.9l6.2,8.8
		c1.7-2.2,3.3-7.4,3.1-8.4h8.4c0,0-1.2,10.5-6,15.5l8.8,11.5H309.9L309.9,141.4z M295.6,96.5c-2.6,0-4.8,2.2-4.5,4.3
		c0.2,2.9,2.6,4.8,4.1,6.7c1.9-1.4,5.3-3.3,5.3-6.5C300.4,98.6,298.4,96.5,295.6,96.5L295.6,96.5z M292.5,118.7
		c-8.1,5.5-7.6,9.3-7.6,9.3c0,3.8,3.6,6,6.2,6.2c3.1,0,7.6-2.6,9.8-4.5L292.5,118.7L292.5,118.7z"/>
	<path class="st1" d="M149.6,111.1c-1.9-7.6-8.8-13.9-17-13.9c-10.3,0-17.9,8.1-17.7,17.9c0.2,9.6,7.6,17,17.7,17
		c9.6,0,15.1-6.9,16.2-11.5h10c-2.2,14.1-15.8,21.5-26.5,21.5c-12.2,0-27.5-10-27.5-27c0-16,12.2-28,27.7-28
		c13.1,0,25.1,10,26.8,23.9H149.6L149.6,111.1z"/>
	<path class="st1" d="M230.8,141.6c-7.9,0-9.3-5.7-9.3-8.8v-23.2h-5v-7.4h5V90.7h10v11.9h6.5v6.9h-6.5v20.8c0,5.3,6.5,3.6,7.4,3.8
		v7.4H230.8L230.8,141.6z"/>
	<path class="st1" d="M171.1,124c0,0.5,0,17.4,0,17.4h-9.8v-38h9.6v3.8c1.4-1.9,4.3-4.1,7.4-5c2.2-0.2,4.3,0,4.3,0v9.3
		C177.5,110.1,170.6,112.3,171.1,124L171.1,124z"/>
	<path class="st1" d="M246.4,124.7c0,5,4.8,8.8,9.8,8.8c3.6,0,5.7-1.4,7.6-4.3h10.3c-1.4,6.7-8.4,12.9-17.4,12.9
		c-11.7,0-20.1-8.8-20.1-21.3c0-9.6,7.2-19.4,18.9-19.1c13.4,0.2,19.4,11.7,19.1,22.9H246.4L246.4,124.7z M255.2,109.6
		c-4.3-0.2-8.4,3.1-8.4,7.9h16.7C263.6,112.7,259.7,109.6,255.2,109.6L255.2,109.6z"/>
	<path class="st1" d="M207.9,141.4c0,0.2-0.2-1.4-0.7-3.1c-1.7,1.4-5.5,4.3-11.5,4.3c-6.7,0-14.3-4.1-14.3-11.9
		c0-4.8,3.1-11,13.9-12.4c6.2-1,11-0.5,11.2-3.8c0.2-1.2-1-5.3-7.2-5.3c-2.9,0-6.5,1-7.2,5.5h-8.6c0-6.7,4.1-12.4,16.7-12.4
		c7.9,0,15.8,3.3,15.8,11.9c0,0,0,20.3,0,21c0.2,2.2,1,5,1.7,6.2H207.9L207.9,141.4z M190.2,130.4c0.2,4.1,5.5,4.8,6.5,4.3
		c0,0,5.3,0,7.6-2.6c1.4-1.9,2.2-4.3,1.4-9.6C196.2,124.7,190.2,125.6,190.2,130.4L190.2,130.4z"/>
	<polygon class="st1" points="485.6,90.3 495.1,90.3 495.1,141.4 485.6,141.4 485.6,90.3 	"/>
	<path class="st1" d="M435.1,124.2c0,0.5,0,17.2,0,17.2h-9.8v-37.8h9.6v3.8c1.7-1.9,4.3-4.3,7.4-5c2.4-0.5,4.5,0,4.5,0v9.3
		C441.4,110.3,434.7,112.5,435.1,124.2L435.1,124.2z"/>
	<path class="st1" d="M411.5,124.2c0,0.5,0,17.2,0,17.2h-10v-37.8h9.8v3.8c1.7-1.9,4.3-4.3,7.4-5c2.2-0.5,4.3,0,4.3,0v9.3
		C417.9,110.3,411,112.5,411.5,124.2L411.5,124.2z"/>
	<path class="st1" d="M455.7,124.9c0,4.8,4.8,8.6,9.8,8.6c3.3,0,5.7-1.2,7.6-4.3h10c-1.2,6.7-8.1,12.9-17.2,12.9
		c-11.5,0-20.1-8.8-20.1-21c0-9.6,7.2-19.4,18.9-19.1c13.1,0,19.4,11.7,18.9,22.9H455.7L455.7,124.9z M464.8,109.6
		c-4.5,0-8.6,3.1-8.6,7.9h16.7C472.9,113,469.3,109.6,464.8,109.6L464.8,109.6z"/>
	<path class="st1" d="M348.2,141.4c-10.8,0-26.8,0-26.8,0V90h23.2c7.9,0,16,3.6,16,13.1c0,7.9-6.2,9.6-7.6,10.8
		c4.5,1.4,9.6,5.7,9.6,14.1C362.5,137.1,353.6,141.4,348.2,141.4L348.2,141.4z M342.4,98.2h-11.5v12.7h11c2.4,0,8.1-1,8.1-6.9
		C350.1,99.8,346,98.2,342.4,98.2L342.4,98.2z M342.4,118.5h-11.5v15.1h12.2c1.7,0,8.1-1.4,8.1-6.9
		C351.3,123.5,350.5,118.5,342.4,118.5L342.4,118.5z"/>
	<path class="st1" d="M390.5,141.4c0,0.2-0.5-1.4-0.7-3.1c-1.7,1.4-5.5,4.3-11.5,4.3c-6.7,0-14.3-4.1-14.3-11.9
		c0-4.8,3.1-10.8,14.1-12.4c5.7-1,10.8-0.5,11-3.8c0.2-1-1-5-7.2-5c-2.9,0-6.2,0.7-6.9,5.5h-8.8c0-6.7,4.5-12.4,16.7-12.4
		c7.6,0,15.5,3.3,15.8,11.9c0,7.2,0,19.6,0,19.6c0,1.7,0.7,6,1.4,7.4H390.5L390.5,141.4z M374,130.4c0,4.1,5.5,4.8,6.5,4.3
		c0,0,5.3,0,7.4-2.6c1.4-1.9,1.9-4.1,1.4-9.6C379.9,124.9,374,125.6,374,130.4L374,130.4z"/>
</g>
<g>
	<g>
		<path d="M1386.1,785.6c1.9,0,1.9-3,0-3C1384.2,782.6,1384.2,785.6,1386.1,785.6L1386.1,785.6z"/>
	</g>
</g>
<g>
	<g>
		<path d="M381.2-417.4c1.9,0,1.9-3,0-3C379.2-420.4,379.2-417.4,381.2-417.4L381.2-417.4z"/>
	</g>
</g>
<g>
	<g>
		<path d="M381.2-417.4c1.9,0,1.9-3,0-3C379.2-420.4,379.2-417.4,381.2-417.4L381.2-417.4z"/>
	</g>
</g>
</svg>
