<?xml version="1.0" encoding="utf-8"?>
<!-- Generator: Adobe Illustrator 22.1.0, SVG Export Plug-In . SVG Version: 6.00 Build 0)  -->
<svg version="1.1" id="Layer_1" xmlns="http://www.w3.org/2000/svg" xmlns:xlink="http://www.w3.org/1999/xlink" x="0px" y="0px"
	 viewBox="0 0 512 512" style="enable-background:new 0 0 512 512;" xml:space="preserve">
<style type="text/css">
	.st0{fill:#384252;}
</style>
<g transform="translate(0,-952.36218)">
	<path class="st0" d="M120.8,1081.4c-20.2,0-36.9,16.7-36.9,36.9v180.3c0,20.2,16.7,36.9,36.9,36.9h270.4
		c20.2,0,36.9-16.7,36.9-36.9v-180.3c0-20.2-16.7-36.9-36.9-36.9H120.8z M122.5,1105.9h267.1L264.2,1225c-5.9,5.6-10.8,5.7-16.6,0.1
		L122.5,1105.9z M108.5,1126.6l122,116.4c14,13.4,36.7,13.4,50.7,0l122.3-116.4v171.9c0,7-5.3,12.3-12.3,12.3H120.8
		c-7,0-12.3-5.3-12.3-12.3V1126.6z"/>
</g>
</svg>
