<?xml version="1.0" encoding="utf-8"?>
<!-- Generator: Adobe Illustrator 21.1.0, SVG Export Plug-In . SVG Version: 6.00 Build 0)  -->
<svg version="1.1" id="Layer_1" xmlns="http://www.w3.org/2000/svg" xmlns:xlink="http://www.w3.org/1999/xlink" x="0px" y="0px"
	 viewBox="0 0 44.9 32.4" style="enable-background:new 0 0 44.9 32.4;" xml:space="preserve">
<style type="text/css">
	.st0{fill:#ED8A6B;}
	.st1{fill:#FFB9A0;}
	.st2{fill:#CCAF66;}
</style>
<path class="st0" d="M35,8.9c-4-4.5-9.8,1-12,5.8c-1.8-4.7-5.9-10.8-9.8-7.1c-2.4,2.2-1.3,7.7,0,10.1c2.2,4.7,5.8,9.1,10.3,11.7
	c1,0.5,1.8-0.6,1.1-1.3C28.1,23.7,40.7,15.2,35,8.9z"/>
<path class="st1" d="M34.1,14.3c-0.6,3-4.5,6.1-6.6,8.2c-1.4,1.4-3,2.9-4.3,4.7c-4.8-3.2-9.5-9.5-9.5-15.2c0-4.2,2.7-3.9,5-1.4
	c1.9,1.9,3.2,4.8,3.4,7.5c0,1.1,1.8,1.1,1.8,0c0-3.2,1.9-5.6,4.3-7.5C31.8,8.1,35,9.9,34.1,14.3z"/>
<path class="st2" d="M12,4.4c1-1.7-1.7-2.9-2.2-1.2c-0.2,0.7,0.1,1.7,1.1,1.7C11.1,4.9,11.7,4.8,12,4.4z"/>
<path class="st2" d="M8.8,8.3C9.6,8.2,10,7.4,9.6,6.7c-0.5-1-1.5-0.6-2.1,0.1C6.8,7.7,7.8,8.5,8.8,8.3z"/>
<path class="st2" d="M7.6,4.4c0.6-0.1,0.8-0.6,0.6-1c-0.3-0.6-1-0.4-1.4,0.1C6.3,4,6.9,4.5,7.6,4.4z"/>
<g>
	<path class="st2" d="M32.6,27c0.2,0.3,0.2,0.6-0.1,1c-0.6,0.7-1.7-0.3-1.4-1C31.2,26.3,32.2,26.5,32.6,27z"/>
	<path class="st2" d="M30.8,30.2c0.2-0.5,0-1-0.6-1c-0.7-0.1-0.8,0.6-0.7,1.2C29.8,31.1,30.6,30.8,30.8,30.2z"/>
</g>
</svg>
