<?xml version="1.0" encoding="utf-8"?>
<!-- Generator: Adobe Illustrator 22.1.0, SVG Export Plug-In . SVG Version: 6.00 Build 0)  -->
<svg version="1.1" id="Layer_1" xmlns="http://www.w3.org/2000/svg" xmlns:xlink="http://www.w3.org/1999/xlink" x="0px" y="0px"
	 viewBox="0 0 600 230" style="enable-background:new 0 0 600 230;" xml:space="preserve">
<style type="text/css">
	.st0{fill-rule:evenodd;clip-rule:evenodd;fill:#B2745E;}
	.st1{fill:#B2745E;}
</style>
<path class="st0" d="M891,132.2c0,0.1,0,0.3,0,0.4C891,132.5,891,132.4,891,132.2 M912,130.1c0,0.1,0,0.3,0,0.4
	C912,130.4,912,130.3,912,130.1 M1006.4,117.1c3.9,0,7.8,0,11.8,0c0,1.5,0,3.1,0,4.6c-3.6,0-7.3,0-10.9,0c-0.6,0-0.8,0.3-0.8-0.4
	c-0.1,0-0.3,0-0.4,0C1006.1,119.9,1006.3,118.5,1006.4,117.1 M1242.3,107.4c-1.2,3.2-4.6,8.8-4.6,12.2c1.3,0,8.8,0.3,8.8-0.4
	c0.1,0,0.3,0,0.4,0C1246.2,115.2,1244.8,110.5,1242.3,107.4 M895.2,107c-1.1,3.1-4.6,9.4-4.6,12.6c1.3,0,8.8,0.3,8.8-0.4
	c0.1,0,0.3,0,0.4,0C899,115,897.4,110.5,895.2,107 M1155,98.2c0,0.1,0,0.3,0,0.4c-9.3,4.3-7.9,34.6,4.2,33.4c10.9-1.1,9-27.8,2-32.7
	C1159.5,98.1,1157.2,98.2,1155,98.2 M1073.6,98.2c0,0.1,0,0.3,0,0.4c-9.3,4.3-8,34.6,4.2,33.4c10.9-1.1,9-27.8,2-32.7
	C1078.1,98.1,1075.8,98.2,1073.6,98.2 M873.3,96.9L873.3,96.9 M1178.9,96.1c3.3,0,12.5-0.7,14.8,0.5c1,0.5,7.4,18.9,7.4,20.9
	c0.1,0,0.3,0,0.4,0c0-0.1,0-0.3,0-0.4c0.1,0,0.3,0,0.4,0c0.5-3,5-18.8,6.6-20.2c1.8-1.5,10.1-0.8,13.1-0.8c0.6,0,0.8-0.2,0.8,0.4
	c0.1,0,0.3,0,0.4,0c-0.1,0.7-0.3,1.4-0.4,2.1c-0.9,0.2-3.8,0.3-3.8,1.3c-1.1,2.6-0.7,28.2,0.5,30.4c0.6,1,2.9,1.2,4.1,1.2
	c0,0.7,0.3,2.1-0.4,2.1c0,0.1,0,0.3,0,0.4c-5.2,0-10.3,0-15.5,0c-0.6,0-1.3,0.3-1.3-0.4c-0.1,0-0.3,0-0.4,0c0-0.7,0-1.4,0-2.1
	c1.4-0.1,2.8-0.3,4.2-0.4c0.8-9.1,0.4-19.1,0.4-28.6c-0.1,0-0.3,0-0.4,0c0,0.1,0,0.3,0,0.4c-0.8,2.1-1.5,4.2-2.3,6.2
	c-1.9,5.5-3.5,11.2-5.2,16.9c-0.7,2.5-1.4,5-2.1,7.6c-1.3,0-1.9-0.2-2.5-1.3c-0.9-2.5-1.8-5-2.7-7.5c-1.7-5-3.4-10.1-5-15.1
	c-0.8-2.3-1.5-4.5-2.3-6.8c-0.1,0-0.3,0-0.4,0c0,5.7,0,11.5,0,17.2c0,2.6-0.3,5.5,0.3,7.9c0.4,1.4,1.2,2.4,2.4,3.2
	c0.5,0.4,2.4,1.2,1.9,2.2c-0.8,1.6-10.2,1-12.6,1c-0.6,0-0.4,0.1-0.4-0.4c-0.1,0-0.3,0-0.4,0c0-0.4,0-0.8,0-1.3
	c1.5-1,3.5-1.8,4.3-3.5c1.1-2.5,0.7-6,0.7-9.1c0-6.3,0-12.6,0-18.9c-0.1,0-0.3,0-0.4,0c0,0.6,0.3,1.3-0.4,1.3c0.1-1,0.3-2,0.4-2.9
	c-0.8-0.1-4.2-0.2-4.2-0.8c-0.1,0-0.3,0-0.4,0C1178.7,97.7,1178.8,96.9,1178.9,96.1 M1098.8,96.1c3.1,0,9.8-0.7,12.1,0.5
	c0.9,0.5,17.7,22.6,17.7,22.6c0.1,0,0.3,0,0.4,0c0-0.6-0.1-0.4,0.4-0.4c0-4.8,0.7-12.5-0.3-16.7c-0.8-2.9-5.1-3.6-5.1-5.6
	c0.1,0,0.3,0,0.4,0c0-0.1,0-0.3,0-0.4c4.2,0,8.4,0,12.6,0c0.6,0,0.4-0.1,0.4,0.4c0.1,0,0.3,0,0.4,0c-0.9,3-3.9,2.8-4.7,6.4
	c-0.9,3.8-0.3,8.9-0.3,13c0,6.2-0.4,12-0.4,18.1c-1.6-0.1-2.9-0.2-4-1.1c-2-1.6-20.3-25.9-20.3-26.7c-0.3,0-0.6,0-0.8,0
	c0,5.2,0,10.4,0,15.6c0,2.2-0.2,4.8,0.6,6.6c0.8,1.8,2.2,2.4,3.9,3.3c0.5,0.3,2.1,2.2,1,2.2c0,0.1,0,0.3,0,0.4
	c-4.2-0.7-8.9-0.4-13.4-0.4c-0.6,0-0.4,0.1-0.4-0.4c-0.1,0-0.3,0-0.4,0c0-0.6,0-1.1,0-1.7c1.7-0.6,3.5-1.4,4.3-3.1
	c1.7-3.4,1-11.7,1.2-16.2c0.1-3.1,1-6.9,0-10c-0.8-2.5-5.5-4.2-5.5-4.7c-0.3-0.4-0.8-0.8,0-0.8C1098.5,96.6,1098.6,96.4,1098.8,96.1
	 M857,96.1c5.7,0,11.5,0,17.2,0c-0.1,0.7,0.1,2.5-0.8,2.5c-1.3,0.1-2.5,0.3-3.8,0.4c0,10.7,0,21.3,0,31.9c0.8,0,4.2-0.4,4.2,0.4
	c0.1,0,0.3,0,0.4,0c0,0.8,0,1.7,0,2.5c-5.7,0-11.5,0-17.2,0c0-0.7-0.3-2.5,0.4-2.5c0-0.1,0-0.3,0-0.4c0.8-0.1,2.7,0,3.2-0.8
	c1.3-2.2,0.6-6.9,0.6-9.7c0-7.1,0-14.3,0-21.4c-1.4,0-2.8,0-4.2,0C857,98,857,97.1,857,96.1 M819.6,96.1c6.3,0,12.6,0,18.9,0
	c0,0.7,0.3,2.5-0.4,2.5c0,0.1,0,0.3,0,0.4c-1.7,0-3.4,0-5,0c0,4.4-0.7,29.6,0.7,31.3c1,1.2,4,1.1,5.6,1.1c1.8-0.9,3.6-0.9,5.3-2.3
	c2.8-2.5,3.9-9.1,7.3-9.1c-0.1,4.5-0.4,8.7-0.4,13c0,0.6,0.1,0.4-0.4,0.4c0,0.1,0,0.3,0,0.4c-9.8,0-19.5-0.4-29-0.4
	c-0.7,0-2.9,0.3-2.9-0.4c-0.1,0-0.3,0-0.4,0c0-0.6-0.3-1.3,0.4-1.3c1.3-1.2,3.7-0.5,4.6-2.3c1.2-2.3,1.4-25.8,0.4-28.6
	c-0.9-2.5-5.1-1.6-5.1-4.4C819.3,96.3,819.5,96.2,819.6,96.1 M782.7,96.1c6.3,0,12.6,0,18.9,0c0,0.7,0.3,2.5-0.4,2.5
	c0,0.1,0,0.3,0,0.4c-1.7,0-3.4,0-5,0c0,9.8,0,19.7,0.1,29.4c0,0.8-0.2,2.5,0.8,2.5c1.4,0.5,3,0.4,4.6,0.4
	c9.7-0.2,8.8-11.3,13.4-11.3c-0.1,4.5-0.4,8.7-0.4,13c0,0.6,0.1,0.4-0.4,0.4c0,0.1,0,0.3,0,0.4c-7.4,0-14.8,0-22.2,0
	c-2.8,0-6.3,0.4-8.7-0.4c-0.4-0.1-2-1.3-1-1.3c0-0.3,0-0.6,0-0.8c0.9-0.3,4.6-0.3,4.6-1.3c1.8-4.2,0.8-15.2,0.8-20.6
	c0-2.7,0.5-6.3-0.3-8.7c-0.9-2.5-5.1-1.5-5.1-4.4C782.4,96.3,782.5,96.2,782.7,96.1 M760.4,96.1c5.7,0,11.5,0,17.2,0
	c-0.1,0.7,0.1,2.5-0.8,2.5c-1.3,0.1-2.5,0.3-3.8,0.4c0,10.7,0,21.3,0,31.9c0.8,0,4.2-0.4,4.2,0.4c0.1,0,0.3,0,0.4,0
	c0,0.8,0,1.7,0,2.5c-5.7,0-11.5,0-17.2,0c0-0.7-0.3-2.5,0.4-2.5c0-0.1,0-0.3,0-0.4c0.9-0.1,2.7,0,3.2-0.8c1.1-1.9,0.6-5.2,0.6-7.6
	c0-7.8,0-15.7,0-23.5c-1.4,0-2.8,0-4.2,0C760.4,98,760.4,97.1,760.4,96.1 M705,96.1c5,0,10.1,0,15.1,0c0,0.7,0.3,2.1-0.4,2.1
	c0,0.1,0,0.3,0,0.4c-0.7,0-2.5-0.3-2.5,0.4c-0.1,0-0.3,0-0.4,0c0.4,5.6,3,11.2,4.8,16.3c0.6,2,1.3,4,1.9,6c0.1,0,0.3,0,0.4,0
	c0-0.1,0-0.3,0-0.4c1.5-2.8,4.2-10.7,4.4-13.9c0.1-1.9-0.7-4.2-1.4-5.7c-0.6-1.3-3.5-3.1-3.5-4c0-0.1,0.1-0.3,0.1-0.4
	c0.4-1.2,11.4-0.8,13.5-0.8c0.6,0,0.4-0.1,0.4,0.4c0.1,0,0.3,0,0.4,0c0,0.6,0,1.1,0,1.7c-1.1,0.2-2.4,0.4-2.8,1.5
	c-0.9,2.6,3.9,14.4,4.9,17.4c0.4,1.1,0.8,2.3,1.2,3.4c0.6,0,0.4-0.1,0.4,0.4c0.1,0,0.3,0,0.4,0c0-0.1,0-0.3,0-0.4
	c1.2-2.8,5.9-16.7,4.5-19.7c-0.6-1.4-1.6-2-2.8-2.6c-0.4-0.2-2.4-1.6-1.3-1.6c0-0.1,0-0.3,0-0.4c4.3,0,8.7,0,13,0
	c-0.7,2.7-3.6,3.5-4.8,6c-1.2,2.5-1.8,5.3-2.6,7.9c-1.5,5.1-3,10.3-4.6,15.4c-0.9,2.8-1.8,5.7-2.7,8.5c-1.1-0.1-2.4-0.2-3.1-1.1
	c-1.2-1.4-7-18.8-7-20.8c-0.3,0-0.6,0-0.8,0c-1.3,4.1-2.6,8.2-4,12.3c-0.9,2.7-1.3,6.6-3.1,8.9c-0.5,0.6-1.5,0.8-2.3,0.5
	c-1.6-0.6-2.1-3.8-2.5-5.2c-2.2-6.6-4.3-13.2-6.5-19.8c-0.9-2.6-1.4-5.8-3-8.1c-0.7-1-2.2-1.9-3.4-1.9C705,97.7,705,96.9,705,96.1
	 M1243.6,95.6c1.3,0.1,2.5,0.1,3.4,0.9c1.5,1.3,2,3.9,2.7,5.7c2.4,5.9,4.8,11.9,7.3,17.8c1.1,3,2.2,6.8,4.2,9.4c0.8,1,2.6,2,3.9,2
	c-0.1,0.8,0,2.1-0.8,2.1c-4,1.2-11,0.4-15.5,0.4c-0.6,0-0.4,0.1-0.4-0.4c-0.1,0-0.3,0-0.4,0c0.1-0.7,0-2.1,0.8-2.1
	c0.6-0.3,1.2-0.6,1.8-0.9c1-1.8-0.1-6.6-2-7.5c-1.6-0.7-10.5-0.9-11.8,0.2c-0.8,0.6-1.2,1.8-1.4,2.7c-1.4,4.9,4.2,5.5,4.2,5.9
	c0.1,0,0.3,0,0.4,0c0,0.6,0.3,1.7-0.4,1.7c0,0.1,0,0.3,0,0.4c-4.3,0-8.7,0-13,0c-0.6,0-0.8,0.3-0.8-0.4c-0.1,0-0.3,0-0.4,0
	c0-0.6,0-1.1,0-1.7c1.4-0.7,2.7-1.3,3.8-2.5c1.8-2.1,2.5-4.6,3.5-7.1c2.3-5.9,4.6-11.8,6.9-17.8
	C1240.4,101.3,1241.4,98.2,1243.6,95.6 M934.6,95.6c0.8,0.2,1.8,0.6,2.3,1.4c1,1.6,1.4,3.8,2,5.7c1,3.2,2,6.4,3,9.6
	c0.6,1.7,1.3,3.4,1.9,5.1c0.1,0,0.3,0,0.4,0c0.7-2.9,5.5-20.1,7.4-21c2.8-1.3,10-0.5,13.6-0.5c0,0.7,0.3,2.5-0.4,2.5
	c0,0.1,0,0.3,0,0.4c-1.4,0.1-3.1,0.1-3.7,1.5c-0.9,2.2-0.1,5.4-0.1,7.8c0,4.8,0,9.5,0,14.3c0,2.3-0.3,5,0.4,7c0.6,1.7,4.2,1,4.2,1.8
	c0.1,0,0.3,0,0.4,0c-0.1,0.8,0,2.1-0.8,2.1c-4.6,1.2-10.9,0.4-16,0.4c-0.6,0-0.4,0.1-0.4-0.4c-0.1,0-0.3,0-0.4,0c0-0.7,0-1.4,0-2.1
	c0.1,0,0.3,0,0.4,0c0-0.1,0-0.3,0-0.4c1.3,0,2.5,0,3.8,0c0.8-9.1,0.4-19.1,0.4-28.6c-0.3,0-0.6,0-0.8,0c-3,9.7-5.9,19.3-8.9,29
	c-0.3,0.7-0.7,1.5-1.6,1.5c-0.8,0-1.2-0.6-1.5-1.2c-3.4-6.9-4.9-14.8-7.5-22.1c-0.8-2.4-1.5-4.8-2.3-7.2c-0.3,0-0.6,0-0.8,0
	c0,6.4,0.1,13.3,0.4,19.3c0.1,2.1,0.2,4.2,0.3,6.2c0.7,2.8,4.8,3.2,4.8,6c-4.6,0-9.2,0-13.9,0c0-0.6,0-1.1,0-1.7
	c1.6-0.6,3.5-1.5,4.2-3.2c0.9-2.3,0.4-5.9,0.4-8.6c0-7.3-0.4-14.4-0.4-21.4c-1.7-0.2-3.1-0.8-4.6-0.8c0-0.4,0-0.8,0-1.3
	C924.7,95.1,930.4,96.9,934.6,95.6 M896.4,95.6c1.2,0.1,2.5,0.1,3.4,0.9c1.6,1.4,2,4,2.8,5.9c1.9,4.6,9.5,26.4,12.7,28.1
	c1.1,0.6,2.2,0.9,2.1,2.5c0,0.5,0,0.4-0.5,0.4c-4.5,1.2-10.6,0.4-15.5,0.4c-0.6,0-0.4,0.1-0.4-0.4c-0.1,0-0.3,0-0.4,0
	c0.1-0.7,0-2.1,0.8-2.1c0.6-0.3,1.2-0.6,1.8-0.9c1-1.8-0.1-6.6-2-7.5c-1.6-0.7-10.5-0.9-11.8,0.2c-0.9,0.7-1.2,2-1.5,3.1
	c-1.2,4.5,4.3,5.1,4.3,5.6c0.1,0,0.3,0,0.4,0c0,0.6,0.3,1.7-0.4,1.7c0,0.1,0,0.3,0,0.4c-4.3,0-8.7,0-13,0c-0.6,0-0.8,0.3-0.8-0.4
	c-0.1,0-0.3,0-0.4,0c0-0.6,0-1.1,0-1.7c1.3-0.7,2.5-1.2,3.6-2.3c1.9-1.9,2.6-4.6,3.6-6.9c2.3-5.9,4.6-11.8,6.9-17.7
	C893.2,101.6,894.1,98.3,896.4,95.6 M1155.9,95.2c3.4,0,6.8,0.5,9.5,1.9c12.2,6.4,14.5,25.4,3,33.8c-2.5,1.8-5.2,3.3-8.4,3.7
	c-17.5,2-26-18.6-16.9-31.6C1146.3,98.3,1150.9,96.8,1155.9,95.2 M1074.4,95.2c3.8,0,7.6,0.6,10.5,2.5c11.1,7.2,13.6,25,2,33.2
	c-2.5,1.8-5.2,3.3-8.4,3.7c-17.3,1.9-26.5-19-16.8-31.8C1065.3,98.2,1069.3,96.9,1074.4,95.2 M1037.1,95.2c2.2,0,4.5,0,6.3,0.8
	c1.5,0.6,3.3,2.2,5,2.2c0.4-0.5,3.8-3.9,3.8-2.1c0.1,0,0.3,0,0.4,0c0,4.2,0,8.4,0,12.6c0,0.6,0.1,0.4-0.4,0.4c0,0.1,0,0.3,0,0.4
	c-0.4-0.1-0.8-0.2-1.2-0.3c-0.6-0.2-0.9-0.5-1.3-1c-0.7-1.3-1.3-2.7-2-4c-2.3-3.9-7-8.1-12-5.7c-1.8,0.8-3.3,2.3-3.5,4.3
	c-1,7.3,12.1,7.5,16.4,9.8c2.5,1.3,4.2,3.9,4.8,6.5c0.6,2.4,0.3,5.3-0.5,7.6c-1.8,5.3-8.1,9.1-14.1,7.8c-2.9-0.7-6.5-3.9-9-2
	c-0.5,0.4-3.3,2.1-3.3,0.9c-0.1,0-0.3,0-0.4,0c0-4.3,0-8.7,0-13c0-0.6-0.2-0.8,0.4-0.8c0-0.1,0-0.3,0-0.4c3.2,0.5,3.3,3.4,4.9,5.7
	c2.5,3.8,6.9,8,11.9,6.8c2.4-0.6,3.9-2.2,4.6-4.5c0.5-1.4,0-3-0.6-4.1c-0.9-1.5-2.5-2.4-4-3c-4.6-1.9-9.9-1.7-13.5-5.4
	c-6.3-6.3-2.1-19,7.3-19C1037.1,95.5,1037.1,95.4,1037.1,95.2 M984.2,95.2c2.2,0,4.3,0.1,6.2,0.7c1.6,0.5,3.4,2.2,5.2,2.2
	c0.4-0.5,3.8-3.9,3.8-2.1c0.1,0,0.3,0,0.4,0c0,4.2,0,8.4,0,12.6c0,0.6,0.1,0.4-0.4,0.4c0,0.1,0,0.3,0,0.4c-0.4-0.1-0.8-0.2-1.2-0.3
	c-0.6-0.2-0.9-0.5-1.3-1c-0.7-1.3-1.3-2.7-2-4c-2.3-3.9-7-8.1-12-5.7c-1.8,0.8-3.3,2.3-3.5,4.3c-1,7.5,12.3,7.3,16.6,10
	c2,1.2,3.5,3.1,4.3,5.3c0.9,2.5,0.8,5.6,0,8.1c-2,6.4-8.9,9.7-15.6,8c-2.4-0.6-5.1-3.5-7.4-1.8c-0.5,0.4-3.5,2.3-3.5,1.1
	c-0.1,0-0.3,0-0.4,0c0-4.3,0-8.7,0-13c0-0.6-0.3-0.8,0.4-0.8c0-0.1,0-0.3,0-0.4c3,0.5,3.4,3.1,4.7,5.4c2.3,4.1,6.9,8.3,12.1,7.1
	c2.2-0.5,3.7-2,4.5-4.1c0.5-1.3,0.3-2.8-0.2-4c-0.7-1.6-2.3-2.6-3.8-3.2c-4.7-2.1-9.8-2-13.8-5.4c-7-6-2.1-19.2,7.1-19.2
	C984.2,95.5,984.2,95.4,984.2,95.2"/>
<g>
	<g>
		<path class="st0" d="M-315.5,155.2c-18.6,13.7-45.6,21-68.8,21c-32.6,0-61.9-12-84-32.1c-1.7-1.6-0.2-3.7,1.9-2.5
			c23.9,13.9,53.5,22.3,84.1,22.3c20.6,0,43.3-4.3,64.1-13.1C-315,149.5-312.4,152.9-315.5,155.2z"/>
		<path class="st0" d="M-307.7,146.4c-2.4-3-15.7-1.4-21.7-0.7c-1.8,0.2-2.1-1.4-0.5-2.5c10.7-7.5,28.1-5.3,30.1-2.8
			c2,2.5-0.5,20-10.5,28.4c-1.5,1.3-3,0.6-2.3-1.1C-310.4,162-305.3,149.4-307.7,146.4z"/>
	</g>
	<g>
		<path class="st0" d="M-329,90.3V83c0-1.1,0.8-1.8,1.8-1.8l32.6,0c1,0,1.9,0.8,1.9,1.8v6.2c0,1-0.9,2.4-2.5,4.6l-16.9,24.1
			c6.3-0.1,12.9,0.8,18.6,4c1.3,0.7,1.6,1.8,1.7,2.8v7.8c0,1.1-1.2,2.3-2.4,1.7c-10-5.3-23.3-5.8-34.4,0.1c-1.1,0.6-2.3-0.6-2.3-1.7
			v-7.4c0-1.2,0-3.2,1.2-5l19.5-28l-17,0C-328.2,92.1-329,91.4-329,90.3z"/>
		<path class="st0" d="M-447.8,135.7h-9.9c-0.9-0.1-1.7-0.8-1.8-1.7l0-50.9c0-1,0.9-1.8,1.9-1.8l9.2,0c1,0,1.7,0.8,1.8,1.7v6.6h0.2
			c2.4-6.4,6.9-9.4,13-9.4c6.2,0,10.1,3,12.9,9.4c2.4-6.4,7.9-9.4,13.7-9.4c4.2,0,8.7,1.7,11.5,5.6c3.1,4.3,2.5,10.5,2.5,15.9
			l0,32.1c0,1-0.9,1.8-1.9,1.8h-9.9c-1-0.1-1.8-0.9-1.8-1.8l0-27c0-2.1,0.2-7.5-0.3-9.5c-0.7-3.4-3-4.4-5.8-4.4
			c-2.4,0-4.9,1.6-5.9,4.2c-1,2.6-0.9,6.8-0.9,9.7v27c0,1-0.9,1.8-1.9,1.8h-9.9c-1-0.1-1.8-0.9-1.8-1.8l0-27c0-5.7,0.9-14-6.1-14
			c-7.1,0-6.8,8.1-6.8,14l0,27C-445.9,134.9-446.8,135.7-447.8,135.7z"/>
		<path class="st0" d="M-264.7,80.2c14.7,0,22.7,12.6,22.7,28.7c0,15.5-8.8,27.8-22.7,27.8c-14.4,0-22.3-12.6-22.3-28.4
			C-287,92.6-279,80.2-264.7,80.2z M-264.6,90.6c-7.3,0-7.8,10-7.8,16.2c0,6.2-0.1,19.5,7.7,19.5c7.7,0,8-10.7,8-17.2
			c0-4.3-0.2-9.4-1.5-13.5C-259.2,92-261.4,90.6-264.6,90.6z"/>
		<path class="st0" d="M-222.9,135.7h-9.9c-1-0.1-1.8-0.9-1.8-1.8l0-50.9c0.1-0.9,0.9-1.7,1.9-1.7l9.2,0c0.9,0,1.6,0.6,1.8,1.4v7.8
			h0.2c2.8-7,6.7-10.3,13.5-10.3c4.4,0,8.8,1.6,11.6,6c2.6,4.1,2.6,10.9,2.6,15.8v32c-0.1,0.9-0.9,1.6-1.9,1.6h-9.9
			c-0.9-0.1-1.7-0.7-1.8-1.6v-27.6c0-5.6,0.6-13.7-6.2-13.7c-2.4,0-4.6,1.6-5.7,4.1c-1.4,3.1-1.6,6.2-1.6,9.6v27.4
			C-221,134.9-221.9,135.7-222.9,135.7z"/>
		<path class="st0" d="M-355,111.4c0,3.9,0.1,7.1-1.9,10.5c-1.6,2.8-4.1,4.5-6.9,4.5c-3.8,0-6-2.9-6-7.2c0-8.4,7.6-10,14.7-10V111.4
			z M-345,135.6c-0.7,0.6-1.6,0.6-2.3,0.2c-3.3-2.7-3.9-4-5.7-6.6c-5.4,5.5-9.3,7.2-16.3,7.2c-8.3,0-14.8-5.2-14.8-15.4
			c0-8,4.4-13.5,10.6-16.2c5.4-2.4,12.9-2.8,18.6-3.4V100c0-2.4,0.2-5.1-1.2-7.2c-1.2-1.8-3.5-2.6-5.6-2.6c-3.8,0-7.1,1.9-8,6
			c-0.2,0.9-0.8,1.8-1.7,1.8l-9.6-1c-0.8-0.2-1.7-0.8-1.5-2.1c2.2-11.7,12.7-15.2,22.2-15.2c4.8,0,11.1,1.3,14.9,4.9
			c4.8,4.5,4.4,10.5,4.4,17.1v15.4c0,4.6,1.9,6.7,3.7,9.2c0.6,0.9,0.8,2,0,2.6C-339.4,130.7-343,133.8-345,135.6L-345,135.6z"/>
		<path class="st0" d="M-484.9,111.4c0,3.9,0.1,7.1-1.9,10.5c-1.6,2.8-4.1,4.5-6.9,4.5c-3.8,0-6-2.9-6-7.2c0-8.4,7.6-10,14.7-10
			V111.4z M-474.9,135.6c-0.7,0.6-1.6,0.6-2.3,0.2c-3.3-2.7-3.9-4-5.7-6.6c-5.4,5.5-9.3,7.2-16.3,7.2c-8.3,0-14.8-5.2-14.8-15.4
			c0-8,4.4-13.5,10.6-16.2c5.4-2.4,12.9-2.8,18.6-3.4V100c0-2.4,0.2-5.1-1.2-7.2c-1.2-1.8-3.5-2.6-5.6-2.6c-3.8,0-7.1,1.9-8,6
			c-0.2,0.9-0.8,1.8-1.7,1.8l-9.6-1c-0.8-0.2-1.7-0.8-1.5-2.1c2.2-11.7,12.7-15.2,22.2-15.2c4.8,0,11.1,1.3,14.9,4.9
			c4.8,4.5,4.4,10.5,4.4,17.1v15.4c0,4.6,1.9,6.7,3.7,9.2c0.6,0.9,0.8,2,0,2.6C-469.3,130.7-472.9,133.8-474.9,135.6L-474.9,135.6z"
			/>
	</g>
</g>
<g>
	<path class="st0" d="M-1040.1,141.4l-3.8-4.8c-3.1,3.1-10,6.2-15.1,6.2c-8.6,0-16-6.2-16-14.3c0-10,9.6-15.5,12.4-16.5
		c-1.9-2.4-5.3-6.5-5.3-11.5c0.2-6.7,4.3-11.9,13.1-11.9c7.6,0,13.4,5,13.4,12.4c0,8.4-6.5,11.2-8.4,12.9l6.2,8.8
		c1.7-2.2,3.3-7.4,3.1-8.4h8.4c0,0-1.2,10.5-6,15.5l8.8,11.5H-1040.1L-1040.1,141.4z M-1054.4,96.5c-2.6,0-4.8,2.2-4.5,4.3
		c0.2,2.9,2.6,4.8,4.1,6.7c1.9-1.4,5.3-3.3,5.3-6.5C-1049.6,98.6-1051.6,96.5-1054.4,96.5L-1054.4,96.5z M-1057.5,118.7
		c-8.1,5.5-7.6,9.3-7.6,9.3c0,3.8,3.6,6,6.2,6.2c3.1,0,7.6-2.6,9.8-4.5L-1057.5,118.7L-1057.5,118.7z"/>
	<path class="st0" d="M-1200.4,111.1c-1.9-7.6-8.8-13.9-17-13.9c-10.3,0-17.9,8.1-17.7,17.9c0.2,9.6,7.6,17,17.7,17
		c9.6,0,15.1-6.9,16.2-11.5h10c-2.2,14.1-15.8,21.5-26.5,21.5c-12.2,0-27.5-10-27.5-27c0-16,12.2-28,27.7-28
		c13.1,0,25.1,10,26.8,23.9H-1200.4L-1200.4,111.1z"/>
	<path class="st0" d="M-1119.2,141.6c-7.9,0-9.3-5.7-9.3-8.8v-23.2h-5v-7.4h5V90.7h10v11.9h6.5v6.9h-6.5v20.8c0,5.3,6.5,3.6,7.4,3.8
		v7.4H-1119.2L-1119.2,141.6z"/>
	<path class="st0" d="M-1178.9,124c0,0.5,0,17.4,0,17.4h-9.8v-38h9.6v3.8c1.4-1.9,4.3-4.1,7.4-5c2.2-0.2,4.3,0,4.3,0v9.3
		C-1172.5,110.1-1179.4,112.3-1178.9,124L-1178.9,124z"/>
	<path class="st0" d="M-1103.6,124.7c0,5,4.8,8.8,9.8,8.8c3.6,0,5.7-1.4,7.6-4.3h10.3c-1.4,6.7-8.4,12.9-17.4,12.9
		c-11.7,0-20.1-8.8-20.1-21.3c0-9.6,7.2-19.4,18.9-19.1c13.4,0.2,19.4,11.7,19.1,22.9H-1103.6L-1103.6,124.7z M-1094.8,109.6
		c-4.3-0.2-8.4,3.1-8.4,7.9h16.7C-1086.4,112.7-1090.3,109.6-1094.8,109.6L-1094.8,109.6z"/>
	<path class="st0" d="M-1142.1,141.4c0,0.2-0.2-1.4-0.7-3.1c-1.7,1.4-5.5,4.3-11.5,4.3c-6.7,0-14.3-4.1-14.3-11.9
		c0-4.8,3.1-11,13.9-12.4c6.2-1,11-0.5,11.2-3.8c0.2-1.2-1-5.3-7.2-5.3c-2.9,0-6.5,1-7.2,5.5h-8.6c0-6.7,4.1-12.4,16.7-12.4
		c7.9,0,15.8,3.3,15.8,11.9c0,0,0,20.3,0,21c0.2,2.2,1,5,1.7,6.2H-1142.1L-1142.1,141.4z M-1159.8,130.4c0.2,4.1,5.5,4.8,6.5,4.3
		c0,0,5.3,0,7.6-2.6c1.4-1.9,2.2-4.3,1.4-9.6C-1153.8,124.7-1159.8,125.6-1159.8,130.4L-1159.8,130.4z"/>
	<polygon class="st0" points="-864.4,90.3 -854.9,90.3 -854.9,141.4 -864.4,141.4 -864.4,90.3 	"/>
	<path class="st0" d="M-914.9,124.2c0,0.5,0,17.2,0,17.2h-9.8v-37.8h9.6v3.8c1.7-1.9,4.3-4.3,7.4-5c2.4-0.5,4.5,0,4.5,0v9.3
		C-908.6,110.3-915.3,112.5-914.9,124.2L-914.9,124.2z"/>
	<path class="st0" d="M-938.5,124.2c0,0.5,0,17.2,0,17.2h-10v-37.8h9.8v3.8c1.7-1.9,4.3-4.3,7.4-5c2.2-0.5,4.3,0,4.3,0v9.3
		C-932.1,110.3-939,112.5-938.5,124.2L-938.5,124.2z"/>
	<path class="st0" d="M-894.3,124.9c0,4.8,4.8,8.6,9.8,8.6c3.3,0,5.7-1.2,7.6-4.3h10c-1.2,6.7-8.1,12.9-17.2,12.9
		c-11.5,0-20.1-8.8-20.1-21c0-9.6,7.2-19.4,18.9-19.1c13.1,0,19.4,11.7,18.9,22.9H-894.3L-894.3,124.9z M-885.2,109.6
		c-4.5,0-8.6,3.1-8.6,7.9h16.7C-877.1,113-880.7,109.6-885.2,109.6L-885.2,109.6z"/>
	<path class="st0" d="M-1001.8,141.4c-10.8,0-26.8,0-26.8,0V90h23.2c7.9,0,16,3.6,16,13.1c0,7.9-6.2,9.6-7.6,10.8
		c4.5,1.4,9.6,5.7,9.6,14.1C-987.5,137.1-996.4,141.4-1001.8,141.4L-1001.8,141.4z M-1007.6,98.2h-11.5v12.7h11c2.4,0,8.1-1,8.1-6.9
		C-999.9,99.8-1004,98.2-1007.6,98.2L-1007.6,98.2z M-1007.6,118.5h-11.5v15.1h12.2c1.7,0,8.1-1.4,8.1-6.9
		C-998.7,123.5-999.5,118.5-1007.6,118.5L-1007.6,118.5z"/>
	<path class="st0" d="M-959.5,141.4c0,0.2-0.5-1.4-0.7-3.1c-1.7,1.4-5.5,4.3-11.5,4.3c-6.7,0-14.3-4.1-14.3-11.9
		c0-4.8,3.1-10.8,14.1-12.4c5.7-1,10.8-0.5,11-3.8c0.2-1-1-5-7.2-5c-2.9,0-6.2,0.7-6.9,5.5h-8.8c0-6.7,4.5-12.4,16.7-12.4
		c7.6,0,15.5,3.3,15.8,11.9c0,7.2,0,19.6,0,19.6c0,1.7,0.7,6,1.4,7.4H-959.5L-959.5,141.4z M-976,130.4c0,4.1,5.5,4.8,6.5,4.3
		c0,0,5.3,0,7.4-2.6c1.4-1.9,1.9-4.1,1.4-9.6C-970.1,124.9-976,125.6-976,130.4L-976,130.4z"/>
</g>
<g>
	<g>
		<path d="M36.1,785.6c1.9,0,1.9-3,0-3C34.2,782.6,34.2,785.6,36.1,785.6L36.1,785.6z"/>
	</g>
</g>
<g>
	<g>
		<path d="M-968.8-417.4c1.9,0,1.9-3,0-3C-970.8-420.4-970.8-417.4-968.8-417.4L-968.8-417.4z"/>
	</g>
</g>
<g>
	<g>
		<path d="M-968.8-417.4c1.9,0,1.9-3,0-3C-970.8-420.4-970.8-417.4-968.8-417.4L-968.8-417.4z"/>
	</g>
</g>
<g>
	<path class="st1" d="M79,100c3.2,0.6,4.7,1.9,4.7,3.2s-0.2,2.9-0.7,2.9c-1,0,0.1-1.7-6-1.7c-0.2,0-0.5,0-0.8,0
		c-7.3,12.1-11,20.5-11.4,21.6c-0.5,1.3-0.6,2.3-2.4,2.3c-1.7,0-4.1-1.3-4.1-2.1c0-2.6,3.2-10.7,9.1-21c-2.4,0.3-4.9,0.7-7.4,0.8
		c-6.8,10.7-17.1,21.5-25.8,21.5c-4.6,0-8.1-4-8.1-7.4c0-0.4,0.2-1.4,0.5-1.4c0.2,0,0.2,0.7,0.5,1.3c0.3,0.7,1.1,2.5,4.7,2.5
		c5.2,0,13.1-8.5,19.4-17.3c-2.8-0.9-4.7-2.2-4.7-3.1c0-1,1.2-3,1.9-3c0.5,0,2,1,5.9,1.4c3.9-6.2,6.6-11.9,6.6-14.3
		c0-1-0.4-1.4-1.3-1.4c-4.1,0-16.6,13.3-16.6,21.7c0,0.8,0.4,1.7,0.4,1.9c0,0.2-0.1,0.2-0.3,0.2c-0.2,0-4.7-4.1-4.7-8.1
		c0-6,8.6-20.2,20.8-20.2c5.6,0,8.2,2.7,8.2,7.9c0,2.8-1.6,7.2-4,12.1c2.5-0.2,5.1-0.5,7.4-0.6l0.3-0.4c8.2-13,17.6-22.5,20.6-22.5
		c1.4,0,3.3,1.2,3.3,2.2C95,80.1,87.5,86.7,79,100z"/>
	<path class="st1" d="M112,113.2c-3.1,6.1-8,8.6-11.8,8.6c-0.2,0-0.3,0-0.5,0c-3.1,3.4-6.8,5.8-10.7,5.8c-5,0-8.4-2.8-8.4-8.6
		c0-8.8,8.8-22.4,18.5-22.4c1.7,0,3.2,0.8,4.9,0.8c2.8,0,3.9,2.4,3.9,4.8c0,4.3-1.7,9.8-4.6,14.6c0.4,0.1,0.7,0.2,1,0.2
		c3.5,0,6.1-5.9,6.9-5.9c0.5,0,0.9,0.8,0.9,1.6C112.1,112.9,112.1,113.1,112,113.2z M101.6,100.8c-4.7,0-12.4,10.4-12.4,17.5
		c0,2,0.7,3.5,2.6,3.5c1.1,0,2.2-0.5,3.2-1.3c-1.6-0.9-2.4-2.3-2.4-3.8c0-2.1,1.4-4,4-4c1.4,0,2.6,0.7,3.5,1.6
		c2.2-3.8,3.6-8,3.6-10.4C103.8,102.3,103.4,100.8,101.6,100.8z"/>
	<path class="st1" d="M126.5,127.3c-2.8,0-5.5-2.2-5.5-5.3c0-6.8,6.3-16.6,7.9-18.7l-0.2-0.1c-3.3,3.2-9.8,10.4-13.1,15.5
		c-3.3,5-4.5,8.6-5.8,8.6c-1.2,0-3.8-1.8-3.8-4c0-2.8,11.5-26.8,14.1-26.8c0.9,0,4.1,0.8,4.1,2.5c0,1.5-2,5.9-2.3,7l0.1,0.1
		c1.1-1.1,7.9-9.1,11.2-9.1c2.2,0,5.1,1.5,5.1,2.6c0,1.6-0.7,2.6-1.6,4.3c-0.8,1.6-7.6,13.9-7.6,16.4c0,0.7,0.2,1.3,1.4,1.3
		c3.1,0,9.7-10.7,10.2-10.7s0.8,1,0.8,2C141.3,114.4,132.3,127.3,126.5,127.3z"/>
	<path class="st1" d="M145.3,127.6c-4.1,0-7.3-4.1-7.3-9.1c0-7.6,9-21.3,17-21.3c2.2,0,3.3-0.7,4.6-0.7c1.9,0,3.7,2.2,3.7,4.6
		c0,4.5-6.7,12.3-16.3,12.3c-0.2,0-0.4,0-0.5-0.1c-0.8,1.8-1.3,3.5-1.3,4.9c0,2.6,1,4.3,3.2,4.3c8,0,14.6-11.9,15.3-11.9
		c0.7,0,0.7,1.1,0.7,2C164.4,114.9,155.3,127.6,145.3,127.6z M157.8,100.1c-2.1,0-6.8,5-9.8,10.3c4.7-1,10.9-5.9,10.9-9.3
		C158.9,100.5,158.6,100.1,157.8,100.1z"/>
	<path class="st1" d="M182.4,120.3c-4.6,10.3-8.5,22.2-11.6,26.3c-3.1,4.1-8,6.5-12.5,6.5c-7,0-11.2-5.1-11.2-10.7
		c0-7.9,5.8-12.5,10.8-12.5c3.9,0,7.3,2.8,7.3,8.9c0,1-0.3,1.7-0.7,1.7c-0.2,0-0.2-0.1-0.2-0.2s0-0.4,0-0.5c0-1.4-2.2-3.4-5.2-3.4
		c-5.3,0-8.4,3.4-8.4,6.8c0,3.9,3.2,6.2,6.4,6.2c8,0,9.8-10.2,11.8-16.3c2.1-6.1,3.5-9,4.3-10.6l-0.2-0.1c-2.2,2.3-5.3,5.2-8.6,5.2
		c-2.6,0-4.4-2.6-4.4-7.4c0-2.6,2.2-7.4,4.7-12.1c2.9-5.6,6.5-11,8.9-11c1.6,0,4.3,0.1,4.3,1.9c0,0.8-3.2,4.6-6.6,11.3
		c-2.1,4.2-3.8,8.4-3.8,10.7c0,0.7,0.2,1,0.8,1c1.6,0,7.6-5.6,9.1-8.3c1.5-2.7,3.1-6.4,5.3-10.2c2.2-3.8,4.1-7.1,5.9-7.1
		c1.4,0,4,0.7,4,2.1C192.8,101.5,186.9,110,182.4,120.3z"/>
	<path class="st1" d="M222.3,127.3c-2.9,0-5.5-2.2-5.5-5.3c0-6.8,6.3-16.6,7.8-18.7l-0.2-0.1c-2.3,1.9-7.3,6.4-11.6,13.3
		c-3.5,5.6-5.8,11.3-7,11.3c-2.1,0-5.5-1.3-5.5-2.6c0-0.1,0-0.2,0.1-0.4c2.9-6.4,10.4-19.5,10.4-21.2l-0.2-0.2
		c-0.2,0-6.1,4.6-10.9,11.2c-4,5.6-8,12.9-9.6,12.9c-1.6,0-4.9-1.6-4.9-3.2c0-1.6,2.9-7.6,7-15.3c4-7.6,7.3-12.7,8.2-12.7
		c1,0,5,1,5,2.2c0,1.3-2.6,6.8-2.8,7.7c0.2,0,8.9-9.2,11.6-9.2c2.6,0,5.8,1.9,5.8,3.5c0,0.4-0.8,2.3-1.9,5c1.9-2.1,7.7-8.6,10.7-8.6
		c2.2,0,5.1,1.5,5.1,2.6c0,1.6-0.8,2.6-1.6,4.3c-0.8,1.6-7.6,13.9-7.6,16.4c0,0.7,0.2,1.3,1.4,1.3c3.1,0,9.7-10.7,10.1-10.7
		c0.6,0,0.8,1,0.8,2C237.2,114.4,228.2,127.3,222.3,127.3z"/>
	<path class="st1" d="M265.4,113.2c-3.1,6.1-8,8.6-11.8,8.6c-0.2,0-0.3,0-0.5,0c-3.1,3.4-6.8,5.8-10.7,5.8c-5,0-8.4-2.8-8.4-8.6
		c0-8.8,8.8-22.4,18.5-22.4c1.7,0,3.2,0.8,4.9,0.8c2.8,0,3.9,2.4,3.9,4.8c0,4.3-1.7,9.8-4.6,14.6c0.4,0.1,0.7,0.2,1,0.2
		c3.5,0,6.1-5.9,6.9-5.9c0.5,0,0.9,0.8,0.9,1.6C265.5,112.9,265.4,113.1,265.4,113.2z M255,100.8c-4.7,0-12.4,10.4-12.4,17.5
		c0,2,0.7,3.5,2.6,3.5c1.1,0,2.2-0.5,3.2-1.3c-1.6-0.9-2.4-2.3-2.4-3.8c0-2.1,1.4-4,4-4c1.4,0,2.6,0.7,3.5,1.6
		c2.2-3.8,3.6-8,3.6-10.4C257.2,102.3,256.7,100.8,255,100.8z"/>
	<path class="st1" d="M293.6,113.2c-3.1,6.1-8,8.6-11.8,8.6c-0.2,0-0.3,0-0.5,0c-3.1,3.4-6.8,5.8-10.7,5.8c-5,0-8.4-2.8-8.4-8.6
		c0-8.8,8.8-22.4,18.5-22.4c1.7,0,3.2,0.8,4.9,0.8c2.8,0,3.9,2.4,3.9,4.8c0,4.3-1.7,9.8-4.6,14.6c0.4,0.1,0.7,0.2,1,0.2
		c3.5,0,6.1-5.9,6.9-5.9c0.5,0,0.9,0.8,0.9,1.6C293.7,112.9,293.7,113.1,293.6,113.2z M283.2,100.8c-4.7,0-12.4,10.4-12.4,17.5
		c0,2,0.7,3.5,2.6,3.5c1.1,0,2.2-0.5,3.2-1.3c-1.6-0.9-2.4-2.3-2.4-3.8c0-2.1,1.4-4,4-4c1.4,0,2.6,0.7,3.5,1.6
		c2.2-3.8,3.6-8,3.6-10.4C285.5,102.3,285,100.8,283.2,100.8z"/>
	<path class="st1" d="M308.1,127.3c-2.8,0-5.5-2.2-5.5-5.3c0-6.8,6.3-16.6,7.9-18.7l-0.2-0.1c-3.3,3.2-9.8,10.4-13.1,15.5
		c-3.3,5-4.5,8.6-5.8,8.6c-1.2,0-3.8-1.8-3.8-4c0-2.8,11.5-26.8,14.1-26.8c0.9,0,4.1,0.8,4.1,2.5c0,1.5-2,5.9-2.3,7l0.1,0.1
		c1.1-1.1,7.9-9.1,11.2-9.1c2.2,0,5.1,1.5,5.1,2.6c0,1.6-0.7,2.6-1.6,4.3c-0.8,1.6-7.6,13.9-7.6,16.4c0,0.7,0.2,1.3,1.4,1.3
		c3.1,0,9.7-10.7,10.2-10.7c0.5,0,0.8,1,0.8,2C322.9,114.4,314,127.3,308.1,127.3z"/>
	<path class="st1" d="M384.9,106c3.2,5.7,2.2,16.8,12.2,16.8c2.9,0,4.5-2,4.9-2c0.4,0,0.4,0,0.4,0.4c0,2.3-4.1,7.4-9.4,7.4
		c-16,0-9.6-17.8-14.2-22.3c-5.8,11.2-12.7,21.4-26,21.4c-9.2,0-16-6.8-16-16.4c0-10.3,7.7-18.1,17.8-18.1c2.3,0,4.3,0.5,5.9,1.4
		c0-0.3-0.1-0.5-0.1-0.8c0-7.4,14.6-13.4,27.8-13.4c0.2,0,0.5,0,0.8,0c2.5-1.6,5.2-2.5,7.9-2.5c3.7,0,6.4,1.7,6.4,2.3
		c0,0.2-0.2,0.3-0.5,0.3c-0.5,0-1.4-0.1-2.4-0.1c-1.6,0-3.1,0.4-4.6,1.1c5.9,1.7,9.1,5.7,9.1,10.2C404.8,97.8,398.5,104.5,384.9,106
		z M365.6,91.6c0,1,0.5,1.3,1.4,1.3c2.8,0,6.8-4.7,7.3-5.3c0.5-0.7,0.8-1.3,1.1-1.3c0.4,0,0.4,0.1,0.4,0.8c0,2.9-4.8,11.3-10.2,11.3
		c-0.4,0-0.8-0.1-1.3-0.1c1.2,2,1.8,4.3,1.8,6.7c0,6.2-3.8,12.5-10.5,12.5c-1.6,0-2.8-0.4-2.8-0.8c0-0.4,1-0.3,2.8-1.5
		c1.3-0.8,5-5.1,5-11.3c0-4.1-2.6-7.8-7.1-7.8c-5.3,0-11,5.6-11,14c0,7.6,4.3,11.9,9.2,11.9c11.7,0,17-14.5,21.7-23.3
		c2.8-5,6.9-11.2,11.8-15.4C373.8,83.9,365.6,88.2,365.6,91.6z M392.4,83.8c-4.3,4-7.9,11-11.7,18.8c7.6-0.2,15.8-6.7,15.8-13.6
		C396.5,86.7,395.5,84.7,392.4,83.8z"/>
	<path class="st1" d="M411.9,127.6c-4.1,0-7.3-4.1-7.3-9.1c0-7.6,9-21.3,17-21.3c2.2,0,3.3-0.7,4.6-0.7c1.9,0,3.7,2.2,3.7,4.6
		c0,4.5-6.7,12.3-16.3,12.3c-0.2,0-0.4,0-0.5-0.1c-0.8,1.8-1.3,3.5-1.3,4.9c0,2.6,1,4.3,3.2,4.3c8,0,14.6-11.9,15.3-11.9
		c0.7,0,0.7,1.1,0.7,2C431,114.9,421.8,127.6,411.9,127.6z M424.4,100.1c-2.1,0-6.8,5-9.8,10.3c4.7-1,10.9-5.9,10.9-9.3
		C425.5,100.5,425.1,100.1,424.4,100.1z"/>
	<path class="st1" d="M451.3,121.2c-5.2,10.7-11.3,25.9-21.8,25.9c-5.4,0-9.9-3.1-9.9-8c0-5.9,5.3-10.3,10-10.3
		c2.8,0,4.3,1.7,4.3,3.5c0,1.9-1.5,3.2-1.7,3.2c-0.1,0-0.1-0.1-0.1-0.1c0-0.1,0-0.3,0-0.5c0-0.7-1.3-1.2-2.9-1.2c-3.7,0-6,2.6-6,4.9
		c0,2.5,1.9,3.9,4.1,3.9c5,0,8.7-6.7,10.5-10.3c1.9-3.5,3.2-7.5,3.4-8.1c-1.9,2.2-4,3.1-6,3.1c-3.9,0-7.3-3.8-7.3-8.6
		c0-11.8,12.7-22.1,20.4-22.1c2.9,0,5,1.4,5.6,4.7c0.3-0.4,2.4-3.2,3.1-3.6c0.5-0.3,1.3-0.4,2.1-0.4h0.7c0.8,0,2.6,0.5,2.6,1.3
		C462.4,100,456.4,110.5,451.3,121.2z M448.6,100.8c-5.5,0-13.2,12.1-13.2,17.4c0,1.8,0.8,3.4,2.5,3.4c4.2,0,12.8-14.2,12.8-17.6
		C450.7,102,450.2,100.8,448.6,100.8z"/>
	<path class="st1" d="M462.7,127.4c-3,0-4.9-3.5-4.9-6.9c0-7.3,9.4-22.4,12.4-23.7c0.2-0.1,0.8-0.1,1.6-0.1c1.5,0,3.6,0.3,3.6,1.3
		c0,0.1-0.1,0.3-0.2,0.5c-1.3,2.4-10.3,18.1-10.3,22.3c0,0.9,0.4,1.3,0.8,1.3c3.7,0,10.6-11.3,11.2-11.3c0.7,0,0.7,1.4,0.7,2.2
		C477.6,114,468.9,127.4,462.7,127.4z M477.4,93.1c-2.8,0-5.3-2-5.3-4.9c0-3.1,2.8-5.5,5.8-5.5c2.8,0,5.3,2,5.3,4.9
		C483.2,90.7,480.4,93.1,477.4,93.1z"/>
	<path class="st1" d="M498.9,106.6c-0.3,1.5-0.7,3.3-1.1,5.3c0.5,0.2,1,0.2,1.4,0.2c1.3,0,1.5-0.8,1.6-0.8c0.3,0,0.4,0.1,0.4,0.3
		v0.1c0.1,3.5-2.3,5.5-4.6,5.5c-0.2,0-0.4,0-0.5,0c-2.9,7.3-8.9,10.4-14.1,10.4s-9.7-3.2-9.7-8.7c0-5,4.1-10.5,10.4-10.5
		c0.8,0,1.7,0.1,2.5,0.2c1.7-2,3.9-4.7,5.8-7.5c3.3-5,8-7.8,10.3-7.8c1.5,0,2.6,0.5,2.6,1.4C504,96.1,500.1,101.4,498.9,106.6z
		 M482.7,114.9c-4,0-6,2.6-6,4.9c0,1.9,1.3,3.6,4,3.6c2.8,0,6.2-2,8-7.5C486.6,115.4,484.6,114.9,482.7,114.9z M491.7,104.7
		c-0.5,0.7-2,2.6-3.6,4.5c0.8,0.2,1.6,0.4,2.3,0.7c0.6-2.2,1.1-4,1.4-5L491.7,104.7z"/>
	<path class="st1" d="M521.2,99.6c-0.8,0-0.6,0.1-3.2,0.1c-4.4,8.3-9,16.4-9,19.3c0,2,1.3,2.4,2.2,2.4c3.8,0,10.2-10.6,10.7-10.6
		s0.8,1,0.8,2.2c0,1.1-8.9,14.5-14.2,14.5c-3.9,0-8.3-2.2-8.3-5.7c0-4.2,6.4-15.3,9.4-20.9l0.7-1.3c-1.2-0.1-3.1-0.5-3.1-2
		c0-1,0-2,0.1-2.5c0.1-0.3,0.2-0.4,0.6-0.4c0.3,0,1.1,0.1,1.9,0.1c0.8,0,2.6-0.4,3.2-0.4c2.6-4.9,5.6-10.1,6.3-10.1
		c2.8,0,4.4,2.6,4.4,3.9c0,0.7-0.9,2.5-3.1,6.5h3.2c1.1,0,1.7,0.4,1.7,0.9C525.7,97.7,523,99.6,521.2,99.6z"/>
	<path class="st1" d="M531.6,127.3c-3.8,0-6.7-2.2-6.7-6.5c0-5.9,8.1-16.7,8.1-16.9c0-0.1-2-1-3-1c-0.2,0-0.4,0.1-0.5,0.2
		c-2.9,4.8-5.9,9.2-8,12.2c-0.2,0.3-0.4,0.5-0.7,0.5c-0.5,0-0.9-0.7-0.9-1.8c0-0.4,0.4-1,0.5-1.3c0.8-1.1,2.3-3.5,4-6.9
		c1.8-3.6,2.2-6.2,3.3-8.9c1.2-3,2.1-3.6,4.1-3.6c0.9,0,1.4,0.5,1.4,1.6c0,1.2-0.6,1.7-0.6,1.9c0,0.2,0.4,0.4,1.3,0.4
		c2.8,0,6.2-0.5,7-0.5c1.7,0,3.9,3.3,3.9,4.7c0,1.1-1.9,2-3.2,3.5c-2.3,2.5-8.5,11.2-8.5,15.8c0,0.4,0.2,0.9,0.8,0.9
		c1.5,0,4.2-2.3,6.2-4.9c2.3-2.8,4.2-5.8,4.5-5.8c0.5,0,0.8,1.1,0.8,2.2C545.5,114.3,536.8,127.3,531.6,127.3z"/>
	<path class="st1" d="M563.5,120.3c-4.6,10.3-8.5,22.2-11.6,26.3c-3.1,4.1-8,6.5-12.5,6.5c-7,0-11.2-5.1-11.2-10.7
		c0-7.9,5.8-12.5,10.8-12.5c3.9,0,7.3,2.8,7.3,8.9c0,1-0.3,1.7-0.7,1.7c-0.2,0-0.2-0.1-0.2-0.2s0-0.4,0-0.5c0-1.4-2.2-3.4-5.2-3.4
		c-5.3,0-8.4,3.4-8.4,6.8c0,3.9,3.2,6.2,6.4,6.2c8,0,9.8-10.2,11.8-16.3c2.1-6.1,3.5-9,4.3-10.6l-0.2-0.1c-2.2,2.3-5.3,5.2-8.6,5.2
		c-2.6,0-4.4-2.6-4.4-7.4c0-2.6,2.2-7.4,4.7-12.1c2.9-5.6,6.5-11,8.9-11c1.6,0,4.3,0.1,4.3,1.9c0,0.8-3.2,4.6-6.6,11.3
		c-2.1,4.2-3.8,8.4-3.8,10.7c0,0.7,0.2,1,0.8,1c1.6,0,7.6-5.6,9.1-8.3c1.5-2.7,3.1-6.4,5.3-10.2c2.2-3.8,4.1-7.1,5.9-7.1
		c1.4,0,4,0.7,4,2.1C573.9,101.5,568.1,110,563.5,120.3z"/>
</g>
</svg>
