<?xml version="1.0" encoding="utf-8"?>
<!-- Generator: Adobe Illustrator 22.1.0, SVG Export Plug-In . SVG Version: 6.00 Build 0)  -->
<svg version="1.1" id="Logo" xmlns="http://www.w3.org/2000/svg" xmlns:xlink="http://www.w3.org/1999/xlink" x="0px" y="0px"
	 viewBox="0 0 512 512" style="enable-background:new 0 0 512 512;" xml:space="preserve">
<style type="text/css">
	.st0{fill:#384252;}
</style>
<g>
	<path class="st0" d="M256,121c44,0,49.2,0.2,66.6,1c16.1,0.7,24.8,3.4,30.6,5.7c7.7,3,13.2,6.6,18.9,12.3
		c5.8,5.8,9.3,11.3,12.3,18.9c2.3,5.8,4.9,14.5,5.7,30.6c0.8,17.4,1,22.6,1,66.6s-0.2,49.2-1,66.6c-0.7,16.1-3.4,24.8-5.7,30.6
		c-3,7.7-6.6,13.2-12.3,18.9c-5.8,5.8-11.3,9.3-18.9,12.3c-5.8,2.3-14.5,4.9-30.6,5.7c-17.4,0.8-22.6,1-66.6,1s-49.2-0.2-66.6-1
		c-16.1-0.7-24.8-3.4-30.6-5.7c-7.7-3-13.2-6.6-18.9-12.3c-5.8-5.8-9.3-11.3-12.3-18.9c-2.3-5.8-4.9-14.5-5.7-30.6
		c-0.8-17.4-1-22.6-1-66.6s0.2-49.2,1-66.6c0.7-16.1,3.4-24.8,5.7-30.6c3-7.7,6.6-13.2,12.3-18.9c5.8-5.8,11.3-9.3,18.9-12.3
		c5.8-2.3,14.5-4.9,30.6-5.7C206.8,121.1,212,121,256,121 M256,91.3c-44.7,0-50.3,0.2-67.9,1c-17.5,0.8-29.5,3.6-40,7.7
		c-10.8,4.2-20,9.8-29.2,19c-9.2,9.2-14.8,18.3-19,29.2c-4.1,10.5-6.9,22.4-7.7,40c-0.8,17.6-1,23.2-1,67.9c0,44.7,0.2,50.3,1,67.9
		c0.8,17.5,3.6,29.5,7.7,40c4.2,10.8,9.8,20,19,29.2c9.2,9.2,18.3,14.8,29.2,19c10.5,4.1,22.4,6.9,40,7.7c17.6,0.8,23.2,1,67.9,1
		s50.3-0.2,67.9-1c17.5-0.8,29.5-3.6,40-7.7c10.8-4.2,20-9.8,29.2-19c9.2-9.2,14.8-18.3,19-29.2c4.1-10.5,6.9-22.4,7.7-40
		c0.8-17.6,1-23.2,1-67.9s-0.2-50.3-1-67.9c-0.8-17.5-3.6-29.5-7.7-40c-4.2-10.8-9.8-20-19-29.2c-9.2-9.2-18.3-14.8-29.2-19
		c-10.5-4.1-22.4-6.9-40-7.7C306.3,91.5,300.7,91.3,256,91.3L256,91.3z"/>
	<path class="st0" d="M256,171.4c-46.7,0-84.6,37.9-84.6,84.6s37.9,84.6,84.6,84.6s84.6-37.9,84.6-84.6S302.7,171.4,256,171.4z
		 M256,310.9c-30.3,0-54.9-24.6-54.9-54.9c0-30.3,24.6-54.9,54.9-54.9c30.3,0,54.9,24.6,54.9,54.9
		C310.9,286.3,286.3,310.9,256,310.9z"/>
	<circle class="st0" cx="343.9" cy="168.1" r="19.8"/>
</g>
</svg>
