<?xml version="1.0" encoding="utf-8"?>
<!-- Generator: Adobe Illustrator 22.1.0, SVG Export Plug-In . SVG Version: 6.00 Build 0)  -->
<svg version="1.1" id="Logo_FIXED" xmlns="http://www.w3.org/2000/svg" xmlns:xlink="http://www.w3.org/1999/xlink" x="0px" y="0px"
	 viewBox="0 0 400 400" style="enable-background:new 0 0 400 400;" xml:space="preserve">
<style type="text/css">
	.st0{fill:none;}
	.st1{fill:#384252;}
</style>
<title>Twitter_Logo_Blue</title>
<rect class="st0" width="400" height="400"/>
<path class="st1" d="M137.4,337c127.3,0,196.9-105.4,196.9-196.9c0-3,0-6-0.2-8.9c13.5-9.8,25.2-21.9,34.5-35.8
	c-12.6,5.6-26,9.3-39.7,10.9c14.4-8.6,25.3-22.2,30.4-38.3c-13.6,8.1-28.4,13.7-43.9,16.8c-26.2-27.9-70-29.2-97.9-3
	c-18,16.9-25.6,42.1-20,66.1C141.8,145.1,90,118.9,54.8,75.6c-18.4,31.6-9,72.1,21.4,92.4c-11-0.3-21.8-3.3-31.4-8.7
	c0,0.3,0,0.6,0,0.9c0,32.9,23.2,61.3,55.5,67.8c-10.2,2.8-20.9,3.2-31.2,1.2c9.1,28.2,35,47.5,64.6,48.1
	C109.3,296.5,79,307,47.8,307c-5.5,0-11-0.3-16.5-1C63,326.3,99.8,337,137.4,337"/>
</svg>
