<?xml version="1.0" encoding="utf-8"?>
<!-- Generator: Adobe Illustrator 22.1.0, SVG Export Plug-In . SVG Version: 6.00 Build 0)  -->
<svg version="1.1" id="Layer_1" xmlns="http://www.w3.org/2000/svg" xmlns:xlink="http://www.w3.org/1999/xlink" x="0px" y="0px"
	 viewBox="0 0 600 230" style="enable-background:new 0 0 600 230;" xml:space="preserve">
<style type="text/css">
	.st0{fill:#B2745E;}
	.st1{fill-rule:evenodd;clip-rule:evenodd;fill:#B2745E;}
</style>
<g>
	<g>
		<path class="st0" d="M-365.4,181h22.6v-8.2h-22.6V181z M-373.5,168.7v16.4c0,2.2,1.8,4.1,4.1,4.1h30.7c2.3,0,4.1-1.8,4.1-4.1
			v-16.4c0-2.2-1.8-4.1-4.1-4.1h-30.7C-371.7,164.6-373.5,166.4-373.5,168.7L-373.5,168.7z M-289.2,192.8V71.7
			c0-0.8-0.6-1.4-1.4-1.4h-15.3v123.9h15.3C-289.8,194.2-289.2,193.6-289.2,192.8z M-321.6,194.2h7.5V70.3h-7.5V194.2z
			 M-455.9,194.2h7.5V70.3h-7.5V194.2z M-480.8,192.8c0,0.8,0.6,1.4,1.4,1.4h15.3V70.3h-15.3c-0.8,0-1.4,0.6-1.4,1.4V192.8z
			 M-423.5,42v20.1h7V48.6c0-3.6,3-6.6,6.6-6.6h49.8c3.6,0,6.6,2.9,6.6,6.6v13.5h7V42c0-3.4-2.8-6.2-6.3-6.2h-64.5
			C-420.7,35.8-423.5,38.6-423.5,42z M-408.3,62.2h46.7v-12h-46.7V62.2z M-427.6,70.3h-12.7v123.9h110.5V70.3h-12.7h-15.2h-54.8
			H-427.6z M-290.6,62.2c5.3,0,9.6,4.3,9.6,9.6v121.1c0,5.3-4.3,9.6-9.6,9.6H-310h-15.7h-118.7H-460h-19.4c-5.3,0-9.6-4.3-9.6-9.6
			V71.7c0-5.3,4.3-9.6,9.6-9.6h19.4h15.7h12.7V42c0-7.9,6.5-14.4,14.4-14.4h64.5c8,0,14.4,6.4,14.4,14.4v20.1h12.7h15.7H-290.6z
			 M-395.3,119.6c1-6.9,5.9-8.1,7.9-8.3c3.8-0.3,7.5,1.6,8.4,4.3c0.5,1.7,2.1,2.8,3.9,2.8c1.8,0,3.4-1.2,3.9-2.8
			c0.9-2.8,4.6-4.7,8.4-4.3c2.1,0.2,7,1.3,7.9,8.3c1.5,11.2-12.7,21.5-20.2,25.6c-0.5-0.3-1.2-0.7-1.9-1.1c1.1-2.2,1.9-4.4,2.1-6.6
			c0,0,0,0,0-0.1c0-0.2,0-0.4,0.1-0.6c0,0,0-0.1,0-0.1c0-0.2,0-0.4,0-0.6c0-0.1,0-0.1,0-0.2c0-0.2,0-0.4,0-0.5c0-0.1,0-0.1,0-0.2
			c0-0.2,0-0.4,0-0.5c0-0.1,0-0.1,0-0.2c0-0.2,0-0.4,0-0.6c0-0.1,0-0.1,0-0.2c0-0.2-0.1-0.5-0.1-0.7c0-0.3-0.1-0.5-0.1-0.8
			c0,0,0-0.1,0-0.1c0-0.2-0.1-0.4-0.1-0.7c-1.7-7.4-7.3-10.6-12.3-11c-2.9-0.2-5.6,0.3-8,1.5C-395.5,121.2-395.4,120.4-395.3,119.6
			 M-397.5,152.6c-5.7-3.2-15.7-10.6-14.6-18.5c0.6-4.5,3.5-5.4,5.2-5.5c0.2,0,0.4,0,0.6,0c2.3,0,4.4,1.1,4.9,2.7
			c0.5,1.7,2.1,2.8,3.9,2.8c1.7,0,3.2-1.1,3.8-2.7c0-0.1,0.1-0.2,0.1-0.2c0.6-1.7,3.1-2.8,5.6-2.6c0.1,0,0.2,0,0.4,0c0,0,0,0,0,0
			c0.1,0,0.2,0,0.2,0c0.1,0,0.2,0,0.3,0.1c0,0,0,0,0,0c1.5,0.4,3.3,1.5,4,4.5c0,0,0,0.1,0,0.1c0,0.2,0.1,0.5,0.1,0.7
			c0,0,0,0.1,0,0.1c0,0,0,0,0,0c0,0.2,0,0.4,0.1,0.6c0,0.1,0,0.1,0,0.2c0,0.2,0,0.3,0,0.5c0,0,0,0.1,0,0.1c0,0.2,0,0.4,0,0.7
			c0,0,0,0,0,0.1c0,0.2-0.1,0.4-0.1,0.6c0,0,0,0.1,0,0.1c0,0.2-0.1,0.4-0.1,0.6c0,0,0,0,0,0c-0.1,0.5-0.3,0.9-0.5,1.4c0,0,0,0,0,0
			c-0.1,0.2-0.2,0.5-0.3,0.7c0,0,0,0,0,0c-0.3,0.7-0.7,1.3-1.1,2c0,0-0.1,0.1-0.1,0.1c-0.1,0.1-0.2,0.3-0.3,0.4
			c-0.1,0.1-0.1,0.2-0.2,0.3C-388.9,147.1-394,150.7-397.5,152.6 M-403.4,118.5c-0.1,0.7-0.2,1.5-0.2,2.2c-1.3-0.2-2.6-0.3-4-0.2
			c-5.3,0.4-11.4,4-12.6,12.5c-2.3,16.4,19.9,27.4,20.9,27.9c0.6,0.3,1.2,0.4,1.8,0.4c0.6,0,1.2-0.1,1.8-0.4c0.5-0.3,8-4,13.9-10.1
			c2.8,1.7,4.8,2.7,4.9,2.8c0.6,0.3,1.2,0.4,1.8,0.4c0.6,0,1.2-0.1,1.8-0.4c0.3-0.1,7.2-3.5,13.9-9.3c9.4-8.1,13.8-17,12.6-25.7
			c-1.4-10.4-8.8-14.7-15.3-15.2c-5-0.4-9.7,1.2-13,4.1c-3.3-2.9-8-4.5-13-4.1C-394.6,103.8-402,108.1-403.4,118.5 M-411.2,82.3
			l5.9,5.8l-16,15.9l-5.9-5.8L-411.2,82.3z M-435.8,101.1l11.6,11.6c0.8,0.8,1.8,1.2,2.9,1.2c1,0,2.1-0.4,2.9-1.2l21.7-21.7
			c0.8-0.8,1.2-1.8,1.2-2.9c0-1.1-0.4-2.1-1.2-2.9l-11.6-11.6c-1.6-1.6-4.2-1.6-5.8,0l-21.7,21.7c-0.8,0.8-1.2,1.8-1.2,2.9
			C-437,99.3-436.6,100.3-435.8,101.1L-435.8,101.1z"/>
	</g>
</g>
<path class="st1" d="M206,132.2c0,0.1,0,0.3,0,0.4C206,132.5,206,132.4,206,132.2 M227,130.1c0,0.1,0,0.3,0,0.4
	C227,130.4,227,130.3,227,130.1 M321.4,117.1c3.9,0,7.8,0,11.8,0c0,1.5,0,3.1,0,4.6c-3.6,0-7.3,0-10.9,0c-0.6,0-0.8,0.3-0.8-0.4
	c-0.1,0-0.3,0-0.4,0C321.1,119.9,321.3,118.5,321.4,117.1 M557.3,107.4c-1.2,3.2-4.6,8.8-4.6,12.2c1.3,0,8.8,0.3,8.8-0.4
	c0.1,0,0.3,0,0.4,0C561.2,115.2,559.8,110.5,557.3,107.4 M210.2,107c-1.1,3.1-4.6,9.4-4.6,12.6c1.3,0,8.8,0.3,8.8-0.4
	c0.1,0,0.3,0,0.4,0C214,115,212.4,110.5,210.2,107 M470,98.2c0,0.1,0,0.3,0,0.4c-9.3,4.3-7.9,34.6,4.2,33.4c10.9-1.1,9-27.8,2-32.7
	C474.5,98.1,472.2,98.2,470,98.2 M388.6,98.2c0,0.1,0,0.3,0,0.4c-9.3,4.3-8,34.6,4.2,33.4c10.9-1.1,9-27.8,2-32.7
	C393.1,98.1,390.8,98.2,388.6,98.2 M188.3,96.9L188.3,96.9 M493.9,96.1c3.3,0,12.5-0.7,14.8,0.5c1,0.5,7.4,18.9,7.4,20.9
	c0.1,0,0.3,0,0.4,0c0-0.1,0-0.3,0-0.4c0.1,0,0.3,0,0.4,0c0.5-3,5-18.8,6.6-20.2c1.8-1.5,10.1-0.8,13.1-0.8c0.6,0,0.8-0.2,0.8,0.4
	c0.1,0,0.3,0,0.4,0c-0.1,0.7-0.3,1.4-0.4,2.1c-0.9,0.2-3.8,0.3-3.8,1.3c-1.1,2.6-0.7,28.2,0.5,30.4c0.6,1,2.9,1.2,4.1,1.2
	c0,0.7,0.3,2.1-0.4,2.1c0,0.1,0,0.3,0,0.4c-5.2,0-10.3,0-15.5,0c-0.6,0-1.3,0.3-1.3-0.4c-0.1,0-0.3,0-0.4,0c0-0.7,0-1.4,0-2.1
	c1.4-0.1,2.8-0.3,4.2-0.4c0.8-9.1,0.4-19.1,0.4-28.6c-0.1,0-0.3,0-0.4,0c0,0.1,0,0.3,0,0.4c-0.8,2.1-1.5,4.2-2.3,6.2
	c-1.9,5.5-3.5,11.2-5.2,16.9c-0.7,2.5-1.4,5-2.1,7.6c-1.3,0-1.9-0.2-2.5-1.3c-0.9-2.5-1.8-5-2.7-7.5c-1.7-5-3.4-10.1-5-15.1
	c-0.8-2.3-1.5-4.5-2.3-6.8c-0.1,0-0.3,0-0.4,0c0,5.7,0,11.5,0,17.2c0,2.6-0.3,5.5,0.3,7.9c0.4,1.4,1.2,2.4,2.4,3.2
	c0.5,0.4,2.4,1.2,1.9,2.2c-0.8,1.6-10.2,1-12.6,1c-0.6,0-0.4,0.1-0.4-0.4c-0.1,0-0.3,0-0.4,0c0-0.4,0-0.8,0-1.3
	c1.5-1,3.5-1.8,4.3-3.5c1.1-2.5,0.7-6,0.7-9.1c0-6.3,0-12.6,0-18.9c-0.1,0-0.3,0-0.4,0c0,0.6,0.3,1.3-0.4,1.3c0.1-1,0.3-2,0.4-2.9
	c-0.8-0.1-4.2-0.2-4.2-0.8c-0.1,0-0.3,0-0.4,0C493.7,97.7,493.8,96.9,493.9,96.1 M413.8,96.1c3.1,0,9.8-0.7,12.1,0.5
	c0.9,0.5,17.7,22.6,17.7,22.6c0.1,0,0.3,0,0.4,0c0-0.6-0.1-0.4,0.4-0.4c0-4.8,0.7-12.5-0.3-16.7c-0.8-2.9-5.1-3.6-5.1-5.6
	c0.1,0,0.3,0,0.4,0c0-0.1,0-0.3,0-0.4c4.2,0,8.4,0,12.6,0c0.6,0,0.4-0.1,0.4,0.4c0.1,0,0.3,0,0.4,0c-0.9,3-3.9,2.8-4.7,6.4
	c-0.9,3.8-0.3,8.9-0.3,13c0,6.2-0.4,12-0.4,18.1c-1.6-0.1-2.9-0.2-4-1.1c-2-1.6-20.3-25.9-20.3-26.7c-0.3,0-0.6,0-0.8,0
	c0,5.2,0,10.4,0,15.6c0,2.2-0.2,4.8,0.6,6.6c0.8,1.8,2.2,2.4,3.9,3.3c0.5,0.3,2.1,2.2,1,2.2c0,0.1,0,0.3,0,0.4
	c-4.2-0.7-8.9-0.4-13.4-0.4c-0.6,0-0.4,0.1-0.4-0.4c-0.1,0-0.3,0-0.4,0c0-0.6,0-1.1,0-1.7c1.7-0.6,3.5-1.4,4.3-3.1
	c1.7-3.4,1-11.7,1.2-16.2c0.1-3.1,1-6.9,0-10c-0.8-2.5-5.5-4.2-5.5-4.7c-0.3-0.4-0.8-0.8,0-0.8C413.5,96.6,413.6,96.4,413.8,96.1
	 M172,96.1c5.7,0,11.5,0,17.2,0c-0.1,0.7,0.1,2.5-0.8,2.5c-1.3,0.1-2.5,0.3-3.8,0.4c0,10.7,0,21.3,0,31.9c0.8,0,4.2-0.4,4.2,0.4
	c0.1,0,0.3,0,0.4,0c0,0.8,0,1.7,0,2.5c-5.7,0-11.5,0-17.2,0c0-0.7-0.3-2.5,0.4-2.5c0-0.1,0-0.3,0-0.4c0.8-0.1,2.7,0,3.2-0.8
	c1.3-2.2,0.6-6.9,0.6-9.7c0-7.1,0-14.3,0-21.4c-1.4,0-2.8,0-4.2,0C172,98,172,97.1,172,96.1 M134.6,96.1c6.3,0,12.6,0,18.9,0
	c0,0.7,0.3,2.5-0.4,2.5c0,0.1,0,0.3,0,0.4c-1.7,0-3.4,0-5,0c0,4.4-0.7,29.6,0.7,31.3c1,1.2,4,1.1,5.6,1.1c1.8-0.9,3.6-0.9,5.3-2.3
	c2.8-2.5,3.9-9.1,7.3-9.1c-0.1,4.5-0.4,8.7-0.4,13c0,0.6,0.1,0.4-0.4,0.4c0,0.1,0,0.3,0,0.4c-9.8,0-19.5-0.4-29-0.4
	c-0.7,0-2.9,0.3-2.9-0.4c-0.1,0-0.3,0-0.4,0c0-0.6-0.3-1.3,0.4-1.3c1.3-1.2,3.7-0.5,4.6-2.3c1.2-2.3,1.4-25.8,0.4-28.6
	c-0.9-2.5-5.1-1.6-5.1-4.4C134.3,96.3,134.5,96.2,134.6,96.1 M97.7,96.1c6.3,0,12.6,0,18.9,0c0,0.7,0.3,2.5-0.4,2.5
	c0,0.1,0,0.3,0,0.4c-1.7,0-3.4,0-5,0c0,9.8,0,19.7,0.1,29.4c0,0.8-0.2,2.5,0.8,2.5c1.4,0.5,3,0.4,4.6,0.4
	c9.7-0.2,8.8-11.3,13.4-11.3c-0.1,4.5-0.4,8.7-0.4,13c0,0.6,0.1,0.4-0.4,0.4c0,0.1,0,0.3,0,0.4c-7.4,0-14.8,0-22.2,0
	c-2.8,0-6.3,0.4-8.7-0.4c-0.4-0.1-2-1.3-1-1.3c0-0.3,0-0.6,0-0.8c0.9-0.3,4.6-0.3,4.6-1.3c1.8-4.2,0.8-15.2,0.8-20.6
	c0-2.7,0.5-6.3-0.3-8.7c-0.9-2.5-5.1-1.5-5.1-4.4C97.4,96.3,97.5,96.2,97.7,96.1 M75.4,96.1c5.7,0,11.5,0,17.2,0
	c-0.1,0.7,0.1,2.5-0.8,2.5c-1.3,0.1-2.5,0.3-3.8,0.4c0,10.7,0,21.3,0,31.9c0.8,0,4.2-0.4,4.2,0.4c0.1,0,0.3,0,0.4,0
	c0,0.8,0,1.7,0,2.5c-5.7,0-11.5,0-17.2,0c0-0.7-0.3-2.5,0.4-2.5c0-0.1,0-0.3,0-0.4c0.9-0.1,2.7,0,3.2-0.8c1.1-1.9,0.6-5.2,0.6-7.6
	c0-7.8,0-15.7,0-23.5c-1.4,0-2.8,0-4.2,0C75.4,98,75.4,97.1,75.4,96.1 M20,96.1c5,0,10.1,0,15.1,0c0,0.7,0.3,2.1-0.4,2.1
	c0,0.1,0,0.3,0,0.4c-0.7,0-2.5-0.3-2.5,0.4c-0.1,0-0.3,0-0.4,0c0.4,5.6,3,11.2,4.8,16.3c0.6,2,1.3,4,1.9,6c0.1,0,0.3,0,0.4,0
	c0-0.1,0-0.3,0-0.4c1.5-2.8,4.2-10.7,4.4-13.9c0.1-1.9-0.7-4.2-1.4-5.7c-0.6-1.3-3.5-3.1-3.5-4c0-0.1,0.1-0.3,0.1-0.4
	c0.4-1.2,11.4-0.8,13.5-0.8c0.6,0,0.4-0.1,0.4,0.4c0.1,0,0.3,0,0.4,0c0,0.6,0,1.1,0,1.7c-1.1,0.2-2.4,0.4-2.8,1.5
	c-0.9,2.6,3.9,14.4,4.9,17.4c0.4,1.1,0.8,2.3,1.2,3.4c0.6,0,0.4-0.1,0.4,0.4c0.1,0,0.3,0,0.4,0c0-0.1,0-0.3,0-0.4
	c1.2-2.8,5.9-16.7,4.5-19.7c-0.6-1.4-1.6-2-2.8-2.6c-0.4-0.2-2.4-1.6-1.3-1.6c0-0.1,0-0.3,0-0.4c4.3,0,8.7,0,13,0
	c-0.7,2.7-3.6,3.5-4.8,6c-1.2,2.5-1.8,5.3-2.6,7.9c-1.5,5.1-3,10.3-4.6,15.4c-0.9,2.8-1.8,5.7-2.7,8.5c-1.1-0.1-2.4-0.2-3.1-1.1
	c-1.2-1.4-7-18.8-7-20.8c-0.3,0-0.6,0-0.8,0c-1.3,4.1-2.6,8.2-4,12.3c-0.9,2.7-1.3,6.6-3.1,8.9c-0.5,0.6-1.5,0.8-2.3,0.5
	c-1.6-0.6-2.1-3.8-2.5-5.2c-2.2-6.6-4.3-13.2-6.5-19.8c-0.9-2.6-1.4-5.8-3-8.1c-0.7-1-2.2-1.9-3.4-1.9C20,97.7,20,96.9,20,96.1
	 M558.6,95.6c1.3,0.1,2.5,0.1,3.4,0.9c1.5,1.3,2,3.9,2.7,5.7c2.4,5.9,4.8,11.9,7.3,17.8c1.1,3,2.2,6.8,4.2,9.4c0.8,1,2.6,2,3.9,2
	c-0.1,0.8,0,2.1-0.8,2.1c-4,1.2-11,0.4-15.5,0.4c-0.6,0-0.4,0.1-0.4-0.4c-0.1,0-0.3,0-0.4,0c0.1-0.7,0-2.1,0.8-2.1
	c0.6-0.3,1.2-0.6,1.8-0.9c1-1.8-0.1-6.6-2-7.5c-1.6-0.7-10.5-0.9-11.8,0.2c-0.8,0.6-1.2,1.8-1.4,2.7c-1.4,4.9,4.2,5.5,4.2,5.9
	c0.1,0,0.3,0,0.4,0c0,0.6,0.3,1.7-0.4,1.7c0,0.1,0,0.3,0,0.4c-4.3,0-8.7,0-13,0c-0.6,0-0.8,0.3-0.8-0.4c-0.1,0-0.3,0-0.4,0
	c0-0.6,0-1.1,0-1.7c1.4-0.7,2.7-1.3,3.8-2.5c1.8-2.1,2.5-4.6,3.5-7.1c2.3-5.9,4.6-11.8,6.9-17.8C555.4,101.3,556.4,98.2,558.6,95.6
	 M249.6,95.6c0.8,0.2,1.8,0.6,2.3,1.4c1,1.6,1.4,3.8,2,5.7c1,3.2,2,6.4,3,9.6c0.6,1.7,1.3,3.4,1.9,5.1c0.1,0,0.3,0,0.4,0
	c0.7-2.9,5.5-20.1,7.4-21c2.8-1.3,10-0.5,13.6-0.5c0,0.7,0.3,2.5-0.4,2.5c0,0.1,0,0.3,0,0.4c-1.4,0.1-3.1,0.1-3.7,1.5
	c-0.9,2.2-0.1,5.4-0.1,7.8c0,4.8,0,9.5,0,14.3c0,2.3-0.3,5,0.4,7c0.6,1.7,4.2,1,4.2,1.8c0.1,0,0.3,0,0.4,0c-0.1,0.8,0,2.1-0.8,2.1
	c-4.6,1.2-10.9,0.4-16,0.4c-0.6,0-0.4,0.1-0.4-0.4c-0.1,0-0.3,0-0.4,0c0-0.7,0-1.4,0-2.1c0.1,0,0.3,0,0.4,0c0-0.1,0-0.3,0-0.4
	c1.3,0,2.5,0,3.8,0c0.8-9.1,0.4-19.1,0.4-28.6c-0.3,0-0.6,0-0.8,0c-3,9.7-5.9,19.3-8.9,29c-0.3,0.7-0.7,1.5-1.6,1.5
	c-0.8,0-1.2-0.6-1.5-1.2c-3.4-6.9-4.9-14.8-7.5-22.1c-0.8-2.4-1.5-4.8-2.3-7.2c-0.3,0-0.6,0-0.8,0c0,6.4,0.1,13.3,0.4,19.3
	c0.1,2.1,0.2,4.2,0.3,6.2c0.7,2.8,4.8,3.2,4.8,6c-4.6,0-9.2,0-13.9,0c0-0.6,0-1.1,0-1.7c1.6-0.6,3.5-1.5,4.2-3.2
	c0.9-2.3,0.4-5.9,0.4-8.6c0-7.3-0.4-14.4-0.4-21.4c-1.7-0.2-3.1-0.8-4.6-0.8c0-0.4,0-0.8,0-1.3C239.7,95.1,245.4,96.9,249.6,95.6
	 M211.4,95.6c1.2,0.1,2.5,0.1,3.4,0.9c1.6,1.4,2,4,2.8,5.9c1.9,4.6,9.5,26.4,12.7,28.1c1.1,0.6,2.2,0.9,2.1,2.5c0,0.5,0,0.4-0.5,0.4
	c-4.5,1.2-10.6,0.4-15.5,0.4c-0.6,0-0.4,0.1-0.4-0.4c-0.1,0-0.3,0-0.4,0c0.1-0.7,0-2.1,0.8-2.1c0.6-0.3,1.2-0.6,1.8-0.9
	c1-1.8-0.1-6.6-2-7.5c-1.6-0.7-10.5-0.9-11.8,0.2c-0.9,0.7-1.2,2-1.5,3.1c-1.2,4.5,4.3,5.1,4.3,5.6c0.1,0,0.3,0,0.4,0
	c0,0.6,0.3,1.7-0.4,1.7c0,0.1,0,0.3,0,0.4c-4.3,0-8.7,0-13,0c-0.6,0-0.8,0.3-0.8-0.4c-0.1,0-0.3,0-0.4,0c0-0.6,0-1.1,0-1.7
	c1.3-0.7,2.5-1.2,3.6-2.3c1.9-1.9,2.6-4.6,3.6-6.9c2.3-5.9,4.6-11.8,6.9-17.7C208.2,101.6,209.1,98.3,211.4,95.6 M470.9,95.2
	c3.4,0,6.8,0.5,9.5,1.9c12.2,6.4,14.5,25.4,3,33.8c-2.5,1.8-5.2,3.3-8.4,3.7c-17.5,2-26-18.6-16.9-31.6
	C461.3,98.3,465.9,96.8,470.9,95.2 M389.4,95.2c3.8,0,7.6,0.6,10.5,2.5c11.1,7.2,13.6,25,2,33.2c-2.5,1.8-5.2,3.3-8.4,3.7
	c-17.3,1.9-26.5-19-16.8-31.8C380.3,98.2,384.3,96.9,389.4,95.2 M352.1,95.2c2.2,0,4.5,0,6.3,0.8c1.5,0.6,3.3,2.2,5,2.2
	c0.4-0.5,3.8-3.9,3.8-2.1c0.1,0,0.3,0,0.4,0c0,4.2,0,8.4,0,12.6c0,0.6,0.1,0.4-0.4,0.4c0,0.1,0,0.3,0,0.4c-0.4-0.1-0.8-0.2-1.2-0.3
	c-0.6-0.2-0.9-0.5-1.3-1c-0.7-1.3-1.3-2.7-2-4c-2.3-3.9-7-8.1-12-5.7c-1.8,0.8-3.3,2.3-3.5,4.3c-1,7.3,12.1,7.5,16.4,9.8
	c2.5,1.3,4.2,3.9,4.8,6.5c0.6,2.4,0.3,5.3-0.5,7.6c-1.8,5.3-8.1,9.1-14.1,7.8c-2.9-0.7-6.5-3.9-9-2c-0.5,0.4-3.3,2.1-3.3,0.9
	c-0.1,0-0.3,0-0.4,0c0-4.3,0-8.7,0-13c0-0.6-0.2-0.8,0.4-0.8c0-0.1,0-0.3,0-0.4c3.2,0.5,3.3,3.4,4.9,5.7c2.5,3.8,6.9,8,11.9,6.8
	c2.4-0.6,3.9-2.2,4.6-4.5c0.5-1.4,0-3-0.6-4.1c-0.9-1.5-2.5-2.4-4-3c-4.6-1.9-9.9-1.7-13.5-5.4c-6.3-6.3-2.1-19,7.3-19
	C352.1,95.5,352.1,95.4,352.1,95.2 M299.2,95.2c2.2,0,4.3,0.1,6.2,0.7c1.6,0.5,3.4,2.2,5.2,2.2c0.4-0.5,3.8-3.9,3.8-2.1
	c0.1,0,0.3,0,0.4,0c0,4.2,0,8.4,0,12.6c0,0.6,0.1,0.4-0.4,0.4c0,0.1,0,0.3,0,0.4c-0.4-0.1-0.8-0.2-1.2-0.3c-0.6-0.2-0.9-0.5-1.3-1
	c-0.7-1.3-1.3-2.7-2-4c-2.3-3.9-7-8.1-12-5.7c-1.8,0.8-3.3,2.3-3.5,4.3c-1,7.5,12.3,7.3,16.6,10c2,1.2,3.5,3.1,4.3,5.3
	c0.9,2.5,0.8,5.6,0,8.1c-2,6.4-8.9,9.7-15.6,8c-2.4-0.6-5.1-3.5-7.4-1.8c-0.5,0.4-3.5,2.3-3.5,1.1c-0.1,0-0.3,0-0.4,0
	c0-4.3,0-8.7,0-13c0-0.6-0.3-0.8,0.4-0.8c0-0.1,0-0.3,0-0.4c3,0.5,3.4,3.1,4.7,5.4c2.3,4.1,6.9,8.3,12.1,7.1c2.2-0.5,3.7-2,4.5-4.1
	c0.5-1.3,0.3-2.8-0.2-4c-0.7-1.6-2.3-2.6-3.8-3.2c-4.7-2.1-9.8-2-13.8-5.4c-7-6-2.1-19.2,7.1-19.2C299.2,95.5,299.2,95.4,299.2,95.2
	"/>
<g>
	<g>
		<path class="st1" d="M-1000.5,155.2c-18.6,13.7-45.6,21-68.8,21c-32.6,0-61.9-12-84-32.1c-1.7-1.6-0.2-3.7,1.9-2.5
			c23.9,13.9,53.5,22.3,84.1,22.3c20.6,0,43.3-4.3,64.1-13.1C-1000,149.5-997.4,152.9-1000.5,155.2z"/>
		<path class="st1" d="M-992.7,146.4c-2.4-3-15.7-1.4-21.7-0.7c-1.8,0.2-2.1-1.4-0.5-2.5c10.7-7.5,28.1-5.3,30.1-2.8
			c2,2.5-0.5,20-10.5,28.4c-1.5,1.3-3,0.6-2.3-1.1C-995.4,162-990.3,149.4-992.7,146.4z"/>
	</g>
	<g>
		<path class="st1" d="M-1014,90.3V83c0-1.1,0.8-1.8,1.8-1.8l32.6,0c1,0,1.9,0.8,1.9,1.8v6.2c0,1-0.9,2.4-2.5,4.6l-16.9,24.1
			c6.3-0.1,12.9,0.8,18.6,4c1.3,0.7,1.6,1.8,1.7,2.8v7.8c0,1.1-1.2,2.3-2.4,1.7c-10-5.3-23.3-5.8-34.4,0.1c-1.1,0.6-2.3-0.6-2.3-1.7
			v-7.4c0-1.2,0-3.2,1.2-5l19.5-28l-17,0C-1013.2,92.1-1014,91.4-1014,90.3z"/>
		<path class="st1" d="M-1132.8,135.7h-9.9c-0.9-0.1-1.7-0.8-1.8-1.7l0-50.9c0-1,0.9-1.8,1.9-1.8l9.2,0c1,0,1.7,0.8,1.8,1.7v6.6h0.2
			c2.4-6.4,6.9-9.4,13-9.4c6.2,0,10.1,3,12.9,9.4c2.4-6.4,7.9-9.4,13.7-9.4c4.2,0,8.7,1.7,11.5,5.6c3.1,4.3,2.5,10.5,2.5,15.9
			l0,32.1c0,1-0.9,1.8-1.9,1.8h-9.9c-1-0.1-1.8-0.9-1.8-1.8l0-27c0-2.1,0.2-7.5-0.3-9.5c-0.7-3.4-3-4.4-5.8-4.4
			c-2.4,0-4.9,1.6-5.9,4.2c-1,2.6-0.9,6.8-0.9,9.7v27c0,1-0.9,1.8-1.9,1.8h-9.9c-1-0.1-1.8-0.9-1.8-1.8l0-27c0-5.7,0.9-14-6.1-14
			c-7.1,0-6.8,8.1-6.8,14l0,27C-1130.9,134.9-1131.8,135.7-1132.8,135.7z"/>
		<path class="st1" d="M-949.7,80.2c14.7,0,22.7,12.6,22.7,28.7c0,15.5-8.8,27.8-22.7,27.8c-14.4,0-22.3-12.6-22.3-28.4
			C-972,92.6-964,80.2-949.7,80.2z M-949.6,90.6c-7.3,0-7.8,10-7.8,16.2c0,6.2-0.1,19.5,7.7,19.5c7.7,0,8-10.7,8-17.2
			c0-4.3-0.2-9.4-1.5-13.5C-944.2,92-946.4,90.6-949.6,90.6z"/>
		<path class="st1" d="M-907.9,135.7h-9.9c-1-0.1-1.8-0.9-1.8-1.8l0-50.9c0.1-0.9,0.9-1.7,1.9-1.7l9.2,0c0.9,0,1.6,0.6,1.8,1.4v7.8
			h0.2c2.8-7,6.7-10.3,13.5-10.3c4.4,0,8.8,1.6,11.6,6c2.6,4.1,2.6,10.9,2.6,15.8v32c-0.1,0.9-0.9,1.6-1.9,1.6h-9.9
			c-0.9-0.1-1.7-0.7-1.8-1.6v-27.6c0-5.6,0.6-13.7-6.2-13.7c-2.4,0-4.6,1.6-5.7,4.1c-1.4,3.1-1.6,6.2-1.6,9.6v27.4
			C-906,134.9-906.9,135.7-907.9,135.7z"/>
		<path class="st1" d="M-1040,111.4c0,3.9,0.1,7.1-1.9,10.5c-1.6,2.8-4.1,4.5-6.9,4.5c-3.8,0-6-2.9-6-7.2c0-8.4,7.6-10,14.7-10
			V111.4z M-1030,135.6c-0.7,0.6-1.6,0.6-2.3,0.2c-3.3-2.7-3.9-4-5.7-6.6c-5.4,5.5-9.3,7.2-16.3,7.2c-8.3,0-14.8-5.2-14.8-15.4
			c0-8,4.4-13.5,10.6-16.2c5.4-2.4,12.9-2.8,18.6-3.4V100c0-2.4,0.2-5.1-1.2-7.2c-1.2-1.8-3.5-2.6-5.6-2.6c-3.8,0-7.1,1.9-8,6
			c-0.2,0.9-0.8,1.8-1.7,1.8l-9.6-1c-0.8-0.2-1.7-0.8-1.5-2.1c2.2-11.7,12.7-15.2,22.2-15.2c4.8,0,11.1,1.3,14.9,4.9
			c4.8,4.5,4.4,10.5,4.4,17.1v15.4c0,4.6,1.9,6.7,3.7,9.2c0.6,0.9,0.8,2,0,2.6C-1024.4,130.7-1028,133.8-1030,135.6L-1030,135.6z"/>
		<path class="st1" d="M-1169.9,111.4c0,3.9,0.1,7.1-1.9,10.5c-1.6,2.8-4.1,4.5-6.9,4.5c-3.8,0-6-2.9-6-7.2c0-8.4,7.6-10,14.7-10
			V111.4z M-1159.9,135.6c-0.7,0.6-1.6,0.6-2.3,0.2c-3.3-2.7-3.9-4-5.7-6.6c-5.4,5.5-9.3,7.2-16.3,7.2c-8.3,0-14.8-5.2-14.8-15.4
			c0-8,4.4-13.5,10.6-16.2c5.4-2.4,12.9-2.8,18.6-3.4V100c0-2.4,0.2-5.1-1.2-7.2c-1.2-1.8-3.5-2.6-5.6-2.6c-3.8,0-7.1,1.9-8,6
			c-0.2,0.9-0.8,1.8-1.7,1.8l-9.6-1c-0.8-0.2-1.7-0.8-1.5-2.1c2.2-11.7,12.7-15.2,22.2-15.2c4.8,0,11.1,1.3,14.9,4.9
			c4.8,4.5,4.4,10.5,4.4,17.1v15.4c0,4.6,1.9,6.7,3.7,9.2c0.6,0.9,0.8,2,0,2.6C-1154.3,130.7-1157.9,133.8-1159.9,135.6
			L-1159.9,135.6z"/>
	</g>
</g>
<g>
	<path class="st1" d="M-1725.1,141.4l-3.8-4.8c-3.1,3.1-10,6.2-15.1,6.2c-8.6,0-16-6.2-16-14.3c0-10,9.6-15.5,12.4-16.5
		c-1.9-2.4-5.3-6.5-5.3-11.5c0.2-6.7,4.3-11.9,13.1-11.9c7.6,0,13.4,5,13.4,12.4c0,8.4-6.5,11.2-8.4,12.9l6.2,8.8
		c1.7-2.2,3.3-7.4,3.1-8.4h8.4c0,0-1.2,10.5-6,15.5l8.8,11.5H-1725.1L-1725.1,141.4z M-1739.4,96.5c-2.6,0-4.8,2.2-4.5,4.3
		c0.2,2.9,2.6,4.8,4.1,6.7c1.9-1.4,5.3-3.3,5.3-6.5C-1734.6,98.6-1736.6,96.5-1739.4,96.5L-1739.4,96.5z M-1742.5,118.7
		c-8.1,5.5-7.6,9.3-7.6,9.3c0,3.8,3.6,6,6.2,6.2c3.1,0,7.6-2.6,9.8-4.5L-1742.5,118.7L-1742.5,118.7z"/>
	<path class="st1" d="M-1885.4,111.1c-1.9-7.6-8.8-13.9-17-13.9c-10.3,0-17.9,8.1-17.7,17.9c0.2,9.6,7.6,17,17.7,17
		c9.6,0,15.1-6.9,16.2-11.5h10c-2.2,14.1-15.8,21.5-26.5,21.5c-12.2,0-27.5-10-27.5-27c0-16,12.2-28,27.7-28
		c13.1,0,25.1,10,26.8,23.9H-1885.4L-1885.4,111.1z"/>
	<path class="st1" d="M-1804.2,141.6c-7.9,0-9.3-5.7-9.3-8.8v-23.2h-5v-7.4h5V90.7h10v11.9h6.5v6.9h-6.5v20.8c0,5.3,6.5,3.6,7.4,3.8
		v7.4H-1804.2L-1804.2,141.6z"/>
	<path class="st1" d="M-1863.9,124c0,0.5,0,17.4,0,17.4h-9.8v-38h9.6v3.8c1.4-1.9,4.3-4.1,7.4-5c2.2-0.2,4.3,0,4.3,0v9.3
		C-1857.5,110.1-1864.4,112.3-1863.9,124L-1863.9,124z"/>
	<path class="st1" d="M-1788.6,124.7c0,5,4.8,8.8,9.8,8.8c3.6,0,5.7-1.4,7.6-4.3h10.3c-1.4,6.7-8.4,12.9-17.4,12.9
		c-11.7,0-20.1-8.8-20.1-21.3c0-9.6,7.2-19.4,18.9-19.1c13.4,0.2,19.4,11.7,19.1,22.9H-1788.6L-1788.6,124.7z M-1779.8,109.6
		c-4.3-0.2-8.4,3.1-8.4,7.9h16.7C-1771.4,112.7-1775.3,109.6-1779.8,109.6L-1779.8,109.6z"/>
	<path class="st1" d="M-1827.1,141.4c0,0.2-0.2-1.4-0.7-3.1c-1.7,1.4-5.5,4.3-11.5,4.3c-6.7,0-14.3-4.1-14.3-11.9
		c0-4.8,3.1-11,13.9-12.4c6.2-1,11-0.5,11.2-3.8c0.2-1.2-1-5.3-7.2-5.3c-2.9,0-6.5,1-7.2,5.5h-8.6c0-6.7,4.1-12.4,16.7-12.4
		c7.9,0,15.8,3.3,15.8,11.9c0,0,0,20.3,0,21c0.2,2.2,1,5,1.7,6.2H-1827.1L-1827.1,141.4z M-1844.8,130.4c0.2,4.1,5.5,4.8,6.5,4.3
		c0,0,5.3,0,7.6-2.6c1.4-1.9,2.2-4.3,1.4-9.6C-1838.8,124.7-1844.8,125.6-1844.8,130.4L-1844.8,130.4z"/>
	<polygon class="st1" points="-1549.4,90.3 -1539.9,90.3 -1539.9,141.4 -1549.4,141.4 -1549.4,90.3 	"/>
	<path class="st1" d="M-1599.9,124.2c0,0.5,0,17.2,0,17.2h-9.8v-37.8h9.6v3.8c1.7-1.9,4.3-4.3,7.4-5c2.4-0.5,4.5,0,4.5,0v9.3
		C-1593.6,110.3-1600.3,112.5-1599.9,124.2L-1599.9,124.2z"/>
	<path class="st1" d="M-1623.5,124.2c0,0.5,0,17.2,0,17.2h-10v-37.8h9.8v3.8c1.7-1.9,4.3-4.3,7.4-5c2.2-0.5,4.3,0,4.3,0v9.3
		C-1617.1,110.3-1624,112.5-1623.5,124.2L-1623.5,124.2z"/>
	<path class="st1" d="M-1579.3,124.9c0,4.8,4.8,8.6,9.8,8.6c3.3,0,5.7-1.2,7.6-4.3h10c-1.2,6.7-8.1,12.9-17.2,12.9
		c-11.5,0-20.1-8.8-20.1-21c0-9.6,7.2-19.4,18.9-19.1c13.1,0,19.4,11.7,18.9,22.9H-1579.3L-1579.3,124.9z M-1570.2,109.6
		c-4.5,0-8.6,3.1-8.6,7.9h16.7C-1562.1,113-1565.7,109.6-1570.2,109.6L-1570.2,109.6z"/>
	<path class="st1" d="M-1686.8,141.4c-10.8,0-26.8,0-26.8,0V90h23.2c7.9,0,16,3.6,16,13.1c0,7.9-6.2,9.6-7.6,10.8
		c4.5,1.4,9.6,5.7,9.6,14.1C-1672.5,137.1-1681.4,141.4-1686.8,141.4L-1686.8,141.4z M-1692.6,98.2h-11.5v12.7h11
		c2.4,0,8.1-1,8.1-6.9C-1684.9,99.8-1689,98.2-1692.6,98.2L-1692.6,98.2z M-1692.6,118.5h-11.5v15.1h12.2c1.7,0,8.1-1.4,8.1-6.9
		C-1683.7,123.5-1684.5,118.5-1692.6,118.5L-1692.6,118.5z"/>
	<path class="st1" d="M-1644.5,141.4c0,0.2-0.5-1.4-0.7-3.1c-1.7,1.4-5.5,4.3-11.5,4.3c-6.7,0-14.3-4.1-14.3-11.9
		c0-4.8,3.1-10.8,14.1-12.4c5.7-1,10.8-0.5,11-3.8c0.2-1-1-5-7.2-5c-2.9,0-6.2,0.7-6.9,5.5h-8.8c0-6.7,4.5-12.4,16.7-12.4
		c7.6,0,15.5,3.3,15.8,11.9c0,7.2,0,19.6,0,19.6c0,1.7,0.7,6,1.4,7.4H-1644.5L-1644.5,141.4z M-1661,130.4c0,4.1,5.5,4.8,6.5,4.3
		c0,0,5.3,0,7.4-2.6c1.4-1.9,1.9-4.1,1.4-9.6C-1655.1,124.9-1661,125.6-1661,130.4L-1661,130.4z"/>
</g>
<g>
	<g>
		<path d="M-648.9,785.6c1.9,0,1.9-3,0-3C-650.8,782.6-650.8,785.6-648.9,785.6L-648.9,785.6z"/>
	</g>
</g>
<g>
	<g>
		<path d="M-1653.8-417.4c1.9,0,1.9-3,0-3C-1655.8-420.4-1655.8-417.4-1653.8-417.4L-1653.8-417.4z"/>
	</g>
</g>
<g>
	<g>
		<path d="M-1653.8-417.4c1.9,0,1.9-3,0-3C-1655.8-420.4-1655.8-417.4-1653.8-417.4L-1653.8-417.4z"/>
	</g>
</g>
</svg>
